mada-black.sfdir
StartChar: parenleft
Encoding: 40 40 49
Width: 1000
VWidth: 34
Flags: HW
LayerCount: 2
Fore
SplineSet
654.02734375 -211.228515625 m 1
 505.97265625 -298.771484375 l 1
 274.629882812 92.4853515625 281.655273438 479.100585938 504.407226562 847.498046875 c 1
 651.592773438 758.501953125 l 1
 458.344726562 438.899414062 451.370117188 131.514648438 654.02734375 -211.228515625 c 1
EndSplineSet
EndChar
StartChar: bracketleft
Encoding: 91 91 50
Width: 1000
VWidth: 34
Flags: HW
LayerCount: 2
Fore
SplineSet
569.989257812 836.360351562 m 1
 569.989257812 664.360351562 l 1
 514.977539062 664.360351562 l 1
 514.977539062 -116.360351562 l 1
 571.022460938 -116.360351562 l 1
 571.022460938 -288.360351562 l 1
 342.977539062 -288.360351562 l 1
 342.977539062 836.360351562 l 1
 569.989257812 836.360351562 l 1
EndSplineSet
EndChar
StartChar: braceleft
Encoding: 123 123 48
Width: 1000
VWidth: 34
Flags: HW
LayerCount: 2
Fore
SplineSet
701 -118 m 1
 701 -290 l 1
 552.264648438 -290 444 -175.864257812 444 -41 c 0
 444 127 l 0
 444 128.11328125 446.326171875 167.576171875 414.533203125 179.047851562 c 0
 399.487304688 184.4765625 379.502929688 188 359 188 c 1
 359 360 l 1
 378.759765625 360 398.157226562 363.71875 413.142578125 369.455078125 c 0
 446.1015625 382.073242188 444 422 444 422 c 0
 444 604 l 0
 444 726.215820312 550.208984375 837 701 837 c 1
 701 665 l 1
 635.791015625 665 616 623.784179688 616 604 c 0
 616 392 l 0
 616 346.959960938 597.83203125 305.577148438 572.006835938 275.143554688 c 1
 600.069335938 242.203125 616 202.565429688 616 157 c 0
 616 -41 l 0
 616 -82.1357421875 643.735351562 -118 701 -118 c 1
EndSplineSet
EndChar
StartChar: uni0621
Encoding: 1569 1569 91
Width: 571
VWidth: -36
Flags: HW
AnchorPoint: "arMarkBelow" 240 -120 basechar 0
AnchorPoint: "arDotBelow" 240 -120 basechar 0
AnchorPoint: "arMarkAbove" 350 493 basechar 0
AnchorPoint: "arDotAbove" 350 493 basechar 0
LayerCount: 2
Fore
SplineSet
451.248046875 362.716796875 m 1
 451.248046875 190.716796875 l 1
 382.479492188 190.716796875 l 1
 401.431640625 150.530273438 l 2
 407.552734375 135.681640625 432.41015625 93.9697265625 403.169921875 48.5546875 c 0
 377.654296875 8.9208984375 321.265625 -0.5419921875 309.25390625 -0.2451171875 c 2
 120 -0.2451171875 l 1
 120 171.754882812 l 1
 201.252929688 171.754882812 l 1
 182.98046875 210.504882812 l 2
 182.98046875 210.504882812 141.48828125 280.076171875 187.857421875 327.890625 c 0
 205.103515625 345.670898438 238.044921875 362.716796875 279.5 362.716796875 c 2
 451.248046875 362.716796875 l 1
EndSplineSet
EndChar
StartChar: uni0627
Encoding: 1575 1575 0
Width: 1000
VWidth: 34
Flags: H
LayerCount: 2
Fore
SplineSet
440 694 m 1
 612 694 l 1
 612 193 l 2
 612 95.888671875 565.364257812 1 440 1 c 1
 440 694 l 1
EndSplineSet
EndChar
StartChar: uni062D
Encoding: 1581 1581 1
Width: 1000
VWidth: 34
Flags: HW
LayerCount: 2
Fore
SplineSet
642 -119 m 1
 643 -291 l 1
 403 -291 l 2
 309 -291 232 -217 232 -124 c 2
 232 -9 l 2
 232 80 301 173 410 173 c 2
 504 173 l 1
 498 180 492 187 486 194 c 0
 450 238 421 278 351 304 c 1
 411 464 l 1
 548 412 612 310 639 280 c 0
 683 232 730 243 768 243 c 1
 768 157 l 0
 768 157 784 1 635 1 c 2
 384 1 l 1
 404 21 l 1
 404 -139 l 1
 384 -119 l 1
 642 -119 l 1
EndSplineSet
EndChar
StartChar: uni062F
Encoding: 1583 1583 2
Width: 1000
VWidth: 34
Flags: HW
LayerCount: 2
Fore
SplineSet
433.540039062 287.079101562 m 1
 510.459960938 440.920898438 l 1
 581.544921875 405.37890625 735.3828125 325.268554688 743.907226562 141.99609375 c 0
 747.622070312 62.123046875 685.802734375 0 606 0 c 2
 342 0 l 1
 342 172 l 1
 541.666992188 172 l 2
 564.248046875 172 557.3515625 189.393554688 550.243164062 199.512695312 c 0
 525.263671875 235.072265625 480.416992188 263.640625 433.540039062 287.079101562 c 1
EndSplineSet
EndChar
StartChar: uni0631
Encoding: 1585 1585 3
Width: 1000
VWidth: 34
Flags: HW
LayerCount: 2
Fore
SplineSet
457 221 m 1
 629 221 l 1
 629 3 l 2
 629 -120.15234375 536.57421875 -230 404 -230 c 2
 302 -230 l 1
 302 -58 l 1
 404 -58 l 2
 433.42578125 -58 457 -37.84765625 457 3 c 2
 457 221 l 1
EndSplineSet
EndChar
StartChar: uni0633
Encoding: 1587 1587 5
Width: 1000
VWidth: 34
Flags: HW
LayerCount: 2
Fore
SplineSet
415 412 m 1
 587 412 l 1
 587 -93 l 2
 587 -170 524 -231 448 -231 c 2
 181 -231 l 2
 102 -231 46 -163 46 -89 c 2
 46 219 l 1
 218 219 l 1
 218 -79 l 1
 198 -59 l 1
 435 -59 l 1
 415 -79 l 1
 415 412 l 1
862 410 m 1
 1034 410 l 1
 1034 138 l 2
 1034 61 970 0 894 0 c 2
 792 0 l 1
 792 172 l 1
 882 172 l 1
 862 152 l 1
 862 410 l 1
638 410 m 1
 810 410 l 1
 810 138 l 2
 810 62 747 0 671 0 c 2
 579 0 l 1
 579 172 l 1
 658 172 l 1
 638 152 l 1
 638 410 l 1
EndSplineSet
EndChar
StartChar: uni0635
Encoding: 1589 1589 6
Width: 1286
VWidth: 34
Flags: HW
LayerCount: 2
Fore
SplineSet
489 311 m 1
 661 311 l 1
 661 -93 l 2
 661 -170 598 -231 522 -231 c 2
 255 -231 l 2
 176 -231 120 -163 120 -89 c 2
 120 219 l 1
 292 219 l 1
 292 -79 l 1
 272 -59 l 1
 509 -59 l 1
 489 -79 l 1
 489 311 l 1
624.719726562 172 m 17
 708.11328125 287.846679688 834.805664062 506.325195312 1032.61132812 433.000976562 c 0
 1125.77832031 393.870117188 1161.59472656 304.6484375 1163.96875 207.331054688 c 0
 1165.95605469 140.764648438 l 2
 1168.65429688 62.4912109375 1103.62402344 0 1027 0 c 2
 595 0 l 1
 595 172 l 1
 1013 172 l 1
 993 152 l 1
 993.03125 202.668945312 l 0
 991.4453125 267.698242188 977.6953125 269.040039062 969.416992188 272.950195312 c 0
 926.716796875 286.760742188 833 174 759 62 c 9
 624.719726562 172 l 17
EndSplineSet
EndChar
StartChar: uni0637
Encoding: 1591 1591 7
Width: 1000
VWidth: 34
Flags: HW
LayerCount: 2
Fore
SplineSet
373.719726562 172 m 17
 457.11328125 287.846679688 583.805664062 506.325195312 781.611328125 433.000976562 c 0
 874.778320312 393.870117188 910.594726562 304.6484375 912.96875 207.331054688 c 0
 914.956054688 140.764648438 l 2
 917.654296875 62.4912109375 852.624023438 0 776 0 c 2
 241 0 l 1
 241 172 l 1
 762 172 l 1
 742 152 l 1
 742.03125 202.668945312 l 0
 740.4453125 267.698242188 726.6953125 269.040039062 718.416992188 272.950195312 c 0
 675.716796875 286.760742188 582 174 508 62 c 9
 373.719726562 172 l 17
287 695 m 1
 459 695 l 1
 459 122 l 1
 287 122 l 1
 287 695 l 1
EndSplineSet
EndChar
StartChar: uni0639
Encoding: 1593 1593 8
Width: 1000
VWidth: 34
Flags: HW
LayerCount: 2
Fore
SplineSet
665 -100 m 1
 665 -272 l 1
 377 -272 l 2
 303.912484295 -272 249 -209.253433064 249 -139 c 2
 249 39.6533203125 l 2
 249 112.083984375 305.169941047 172 379 172 c 2
 665 172 l 1
 665 0 l 1
 401 0 l 1
 421 20 l 1
 421 -120 l 1
 401 -100 l 1
 665 -100 l 1
433.733398438 54.748046875 m 1
 345.33984375 150.75 281.870117188 278.350585938 369.193359375 373.494140625 c 0
 427.149414062 436.641601562 519.47265625 437.65625 600.708984375 414.950195312 c 0
 620.381835938 409.615234375 640.49609375 402.036132812 658.744140625 394.522460938 c 1
 593.255859375 235.477539062 l 1
 577.459960938 241.981445312 565.666992188 246.283203125 555.24609375 249.0625 c 0
 531.083984375 255.876953125 514.1796875 257.012695312 503.3671875 256.245117188 c 1
 508.69921875 239.5546875 525.112304688 209.43359375 560.266601562 171.251953125 c 1
 433.733398438 54.748046875 l 1
EndSplineSet
EndChar
StartChar: uni0644
Encoding: 1604 1604 9
Width: 1000
VWidth: 34
Flags: HW
LayerCount: 2
Fore
SplineSet
598 730 m 1
 770 730 l 1
 770 -8 l 2
 770 -84.3999318506 707.917737866 -148 630 -148 c 2
 371 -148 l 2
 294.653346485 -148 230 -86.3996986562 230 -9 c 2
 230 180 l 1
 402 180 l 1
 402 4 l 1
 382 24 l 1
 618 24 l 1
 598 4 l 1
 598 730 l 1
EndSplineSet
EndChar
StartChar: uni0645
Encoding: 1605 1605 11
Width: 744
VWidth: 34
Flags: HW
LayerCount: 2
Fore
SplineSet
384.424804688 172.696289062 m 0
 451.51953125 172.696289062 452.6015625 195.419921875 452.6015625 195.419921875 c 0
 452.583007812 200.806640625 447.244140625 229.203125 403.37890625 275.623046875 c 0
 393.418945312 286.1640625 379.90234375 287.560546875 370.633789062 286.10546875 c 0
 357.658203125 284.068359375 358.3203125 269.513671875 358.3203125 260.298828125 c 2
 358.3203125 169.319335938 l 2
 358.3203125 84.099609375 330.681640625 0.8154296875 214.693359375 0.8154296875 c 2
 120 0.8154296875 l 1
 120 172.815429688 l 1
 206.3203125 172.815429688 l 1
 186.30078125 153 l 1
 186.3203125 271.751953125 l 2
 186.329101562 324.583984375 207.375 374.03515625 242.44140625 407.286132812 c 0
 321.2578125 482.01953125 450.53125 476.151367188 528.392578125 393.7578125 c 0
 587.657226562 331.041015625 624.36328125 265.999023438 624.600585938 196.00390625 c 0
 625.091796875 51.2607421875 481.904296875 0.6962890625 384.424804688 0.6962890625 c 0
 318.424804688 0.6962890625 l 1
 318.424804688 172.696289062 l 1
 384.424804688 172.696289062 l 0
EndSplineSet
EndChar
StartChar: uni0647
Encoding: 1607 1607 12
Width: 1000
VWidth: 34
Flags: HW
LayerCount: 2
Fore
SplineSet
440 155 m 1
 440 165 l 1
 440 173 l 1
 573 173 l 1
 553 153 l 1
 553 398 l 1
 725 398 l 1
 725 139 l 2
 725 63 663 1 587 1 c 2
 447 1 l 2
 402 1 360 18 329 46 c 0
 268 101 250 210 325 283 c 0
 401 357 440 377 476 462 c 1
 636 398 l 1
 590 285 545.334960938 251 440 155 c 1
EndSplineSet
EndChar
StartChar: uni0648
Encoding: 1608 1608 13
Width: 1000
VWidth: 34
Flags: HW
LayerCount: 2
Fore
SplineSet
515 267 m 2
 515 273.509750667 511.759995871 272.299696526 505.666666667 271.540881893 c 0
 479.455657766 268.276771843 435.667938672 243.253433633 424.73394474 194.666666667 c 0
 422.203261961 183.421215538 423.888422491 172 441 172 c 2
 569.1328125 172 l 1
 568.921875 0 l 1
 441 0 l 2
 332.494140625 0 245.03515625 88.0947265625 251.219726562 195.28515625 c 0
 265.22265625 352.823242188 395.189453125 443.569335938 510.259765625 443.924804688 c 0
 608.073241672 444.226555944 687 368.191618186 687 267 c 2
 687 3 l 2
 687 -109.787109375 601.696289062 -229 463 -229 c 2
 270 -229 l 1
 270 -57 l 1
 463 -57 l 2
 489.470703125 -57 514.921875 -34.1865234375 514.930664062 0 c 2
 515 267 l 2
EndSplineSet
EndChar
StartChar: uni0649
Encoding: 1609 1609 14
Width: 1000
VWidth: 34
Flags: HW
LayerCount: 2
Fore
SplineSet
739 215 m 1
 739 43 l 1
 661.5 43 l 1
 668.375 59.875 l 1
 738.538085938 -25.51171875 l 2
 813.232236915 -116.412630199 741.720799206 -231 632 -231 c 2
 402 -231 l 2
 315.13671875 -231 175 -176.467773438 175 -20 c 2
 175 206 l 1
 347 206 l 1
 347 -20 l 2
 347 -45.5322265625 360.86328125 -59 402 -59 c 2
 567 -59 l 1
 553 -71 l 1
 497.716796875 -3.794921875 l 2
 416.338110951 95.1331545764 485.935600592 215 601 215 c 2
 739 215 l 1
EndSplineSet
EndChar
StartChar: uni064C
Encoding: 1612 1612 165
Width: 0
VWidth: 0
Flags: HW
LayerCount: 2
Back
SplineSet
21 62.5 m 1
 8.943359375 95.6240234375 l 1
 3.962890625 110.040039062 11.775390625 125.122070312 24.248046875 128.86328125 c 1
 67.90234375 140.495117188 101.32421875 86.6806640625 65.1455078125 73.5126953125 c 2
 -27.4140625 39.82421875 l 2
 -44.798828125 33.4970703125 -66.416015625 40.2607421875 -73.5126953125 59.759765625 c 2
 -83.1748046875 86.3056640625 l 1
EndSplineSet
Fore
SplineSet
-4.97584718993 69.0713668946 m 1
 -14.2805469156 94.6362453545 l 1
 -25.1652231459 126.14745693 -9.52103054443 160.695048544 22.3656846327 170.261255151 c 1
 70.1070056594 182.982580089 110.708772971 154.531154275 123.309268756 121.180487781 c 0
 128.106187424 108.484127462 129.446909192 92.9527726828 122.60932171 78.3609453652 c 0
 116.524343673 65.3752323534 104.775996218 55.8088444699 90.8952330873 50.7567089885 c 0
 -10.6379722276 13.8016300665 l 0
 -43.8350028825 1.71889783907 -87.8472025221 14.0994624658 -102.609498776 54.6594456952 c 0
 -115.170045651 89.1692113202 l 0
 -119.827384333 101.965124425 -113.024162722 116.554699156 -100.228249617 121.212037839 c 0
 -87.4323365125 125.869376521 -72.8427617812 119.06615491 -68.1854230989 106.270241805 c 0
 -55.6248762239 71.7604761798 l 0
 -51.9360006029 61.6251469092 -39.7411689925 56.4178209109 -27.7389808974 60.7862605585 c 0
 -4.97584718993 69.0713668946 l 1
42.0087817088 86.1723799443 m 1
 73.7942200377 97.7413378865 l 0
 76.1313208669 98.5919647513 77.0174751674 99.3363334383 77.3134273713 99.6123661845 c 1
 77.6248949696 102.862241859 68.4643691489 121.303902324 48.3491127647 123.180460766 c 0
 44.4398828325 123.545154026 41.4554766445 123.449949933 36.1878411213 122.198450637 c 1
 34.8799299047 121.671971273 30.8764482341 117.049053614 32.8450000406 111.35008277 c 1
 42.0087817088 86.1723799443 l 1
EndSplineSet
EndChar
StartChar: uni064E
Encoding: 1614 1614 167
Width: 0
VWidth: 0
Flags: HW
LayerCount: 2
Fore
SplineSet
-89.8993420741 16.9199566126 m 0
 -94.5701047031 29.7109758156 -87.7821954029 44.3076810076 -74.9911761999 48.9784436366 c 0
 57.8408550501 97.4833264491 l 0
 70.6318742531 102.154089078 85.2285794451 95.3661797779 89.8993420741 82.5751605749 c 0
 94.5701047031 69.7841413719 87.7821954029 55.1874361799 74.9911761999 50.5166735509 c 0
 -57.8408550501 2.01179073841 l 0
 -70.6318742531 -2.65897189057 -85.2285794451 4.12893740957 -89.8993420741 16.9199566126 c 0
EndSplineSet
EndChar
StartChar: uni064F
Encoding: 1615 1615 168
Width: 0
VWidth: 0
Flags: HW
LayerCount: 2
Back
SplineSet
-8.806640625 53.4638671875 m 1
 -20.86328125 86.587890625 l 1
 -25.84375 101.00390625 -18.03125 116.0859375 -5.55859375 119.827148438 c 1
 38.095703125 131.458984375 71.5185546875 77.64453125 35.3388671875 64.4755859375 c 2
 -76.0146484375 23.947265625 l 2
EndSplineSet
Fore
SplineSet
-35.278258652 57.0753624962 m 1
 -44.5830822567 82.6405813166 l 1
 -55.4693695211 114.151703322 -39.8234550005 148.701922502 -7.93618973116 158.266373568 c 1
 39.8039646816 170.98656614 80.4063269271 142.535712271 93.0069549183 109.184672459 c 0
 97.8039288467 96.4881569697 99.1445472106 80.9566815912 92.3069915623 66.3647894841 c 0
 86.2219412412 53.378804094 74.4748649095 43.8128292047 60.5922489518 38.7595477721 c 0
 -65.8664510214 -7.2661502611 l 0
 -78.6624153685 -11.9233481542 -93.2519152455 -5.11996601958 -97.9091131386 7.67599832753 c 0
 -102.566311032 20.4719626746 -95.7629288971 35.0614625516 -82.96696455 39.7186604447 c 0
 -35.278258652 57.0753624962 l 1
11.7065520545 74.175876025 m 1
 43.4917354232 85.7443584779 l 0
 45.8272519785 86.5944880558 46.7143791945 87.3392145829 47.0110785404 87.6159527769 c 1
 47.3226411232 90.8667622146 38.1619819177 109.308257344 18.0461710659 111.185072286 c 0
 14.1365477878 111.549842041 11.1530428415 111.454795271 5.88418028348 110.203092358 c 1
 4.57697411396 109.676966162 0.57320686461 105.054515117 2.54206663167 99.3555124334 c 1
 11.7065520545 74.175876025 l 1
EndSplineSet
EndChar
StartChar: uni0651
Encoding: 1617 1617 170
Width: 0
VWidth: 0
Flags: HW
LayerCount: 2
Back
SplineSet
-48 18 m 2
 -62 14 -65 24.00390625 -65 32 c 2
 -65 98 l 1
-47.7358462676 17.9760532151 m 1
 -13 30 l 2
 -6 32 0 38 0 45 c 2
 0 111 l 1
28 45 m 1
 54 54 l 2
 61.1953125 56.490234375 67 62 67 69 c 2
 67 135 l 1
EndSplineSet
Fore
SplineSet
-33.961901309 21.8680281974 m 0
 -30.2209883361 8.77483279228 -38.0387763974 -5.29718571812 -51.1319718026 -9.03809869102 c 0
 -63.9090881331 -12.6887033569 -80.8454356739 -10.6367255708 -90.9555319899 1.49539000839 c 0
 -99.6523167187 11.9315316829 -100 22.495949123 -100 29 c 0
 -100 98 l 0
 -100 111.617128764 -88.6171287645 123 -75 123 c 0
 -61.3828712355 123 -50 111.617128764 -50 98 c 0
 -50 38.6932888732 l 1
 -43.6340934418 36.36941544 -36.3322006047 30.1640757323 -33.961901309 21.8680281974 c 0
-80.6627547045 6.9331518053 m 0
 -85.0566471281 19.8219029146 -77.955599304 34.2688622808 -65.0668481947 38.6627547045 c 0
 -25 52.3219074981 l 1
 -25 111 l 0
 -25 124.617128764 -13.6171287645 136 0 136 c 0
 13.6171287645 136 25 124.617128764 25 111 c 0
 25 45 l 0
 25 22.4556412877 7.52735115365 10.5849433249 -4.93349326496 6.33712889158 c 0
 -48.9331518053 -8.66275470446 l 0
 -61.8219029146 -13.0566471281 -76.2688622808 -5.95559930402 -80.6627547045 6.9331518053 c 0
4.48615250771 36.5088884056 m 0
 -0.138829889693 49.3165319676 6.70124484353 63.8888650949 19.5088884056 68.5138474923 c 0
 52 80.2467489014 l 1
 52 139 l 0
 52 152.617128764 63.3828712355 164 77 164 c 0
 90.6171287645 164 102 152.617128764 102 139 c 0
 102 73 l 0
 102 50.8383539914 84.6673111924 38.6978705294 72.334148421 34.4294713618 c 1
 36.4911115944 21.4861525077 l 0
 23.6834680324 16.8611701103 9.11113490511 23.7012448435 4.48615250771 36.5088884056 c 0
EndSplineSet
EndChar
StartChar: uni0652
Encoding: 1618 1618 171
Width: 0
VWidth: 662
Flags: HW
LayerCount: 2
Fore
SplineSet
-46.5 73.6357421875 m 0
 -46.5 47.9765150541 -25.6591580225 27.1357421875 0 27.1357421875 c 0
 25.6592271334 27.1357421875 46.5 47.976584165 46.5 73.6357421875 c 0
 46.5 99.2958859237 25.6594610242 120.135742188 0 120.135742188 c 0
 -25.6595301736 120.135742188 -46.5 99.2958166911 -46.5 73.6357421875 c 0
-96.5 73.6357421875 m 0
 -96.5 126.913167684 -53.2760167014 170.135742188 0 170.135742188 c 0
 53.2760858508 170.135742188 96.5 126.913098451 96.5 73.6357421875 c 0
 96.5 20.359353335 53.2763197416 -22.8642578125 0 -22.8642578125 c 0
 -53.2763888525 -22.8642578125 -96.5 20.3594224459 -96.5 73.6357421875 c 0
EndSplineSet
EndChar
StartChar: uni0653
Encoding: 1619 1619 127
Width: 0
VWidth: 0
GlyphClass: 4
Flags: HW
AnchorPoint: "arHamzaAbove" 0 0 mark 0
LayerCount: 3
Fore
SplineSet
-89 0 m 1
 -189 0 l 1
 -189 53 l 2
 -189 102 -148 140 -100 140 c 2
 139 140 l 1
 139 40 l 1
 -109 40 l 1
 -89 60 l 1
 -89 0 l 1
EndSplineSet
EndChar
StartChar: uni0660
Encoding: 1632 1632 174
Width: 800
VWidth: 0
Flags: HW
LayerCount: 2
Fore
SplineSet
300 329 m 0
 300 384.200195312 344.799804688 429 400 429 c 0
 455.200195312 429 500 384.200195312 500 329 c 0
 500 273.799804688 455.200195312 229 400 229 c 0
 344.799804688 229 300 273.799804688 300 329 c 0
EndSplineSet
EndChar
StartChar: uni0661
Encoding: 1633 1633 15
Width: 472
VWidth: 0
Flags: HW
LayerCount: 2
Fore
SplineSet
150 659 m 1
 322 659 l 1
 322 0 l 1
 150 0 l 1
 150 659 l 1
EndSplineSet
EndChar
StartChar: uni0662
Encoding: 1634 1634 16
Width: 800
VWidth: 0
Flags: HW
LayerCount: 2
Fore
SplineSet
416 0 m 1
 244 0 l 1
 244 554 l 2
 244 630 307 692 383 692 c 2
 556 692 l 1
 556 520 l 1
 396 520 l 1
 416 540 l 1
 416 0 l 1
EndSplineSet
EndChar
StartChar: uni0663
Encoding: 1635 1635 17
Width: 800
VWidth: 0
Flags: HW
LayerCount: 2
Fore
SplineSet
314 660 m 1
 486 660 l 1
 486 477 l 2
 486 401 423 339 347 339 c 2
 235 339 l 1
 235 511 l 1
 334 511 l 1
 314 491 l 1
 314 660 l 1
528 660 m 1
 700 660 l 1
 700 477 l 2
 700 401 637 339 561 339 c 2
 469 339 l 1
 469 511 l 1
 548 511 l 1
 528 491 l 1
 528 660 l 1
100 660 m 1
 272 660 l 1
 272 0 l 1
 100 0 l 1
 100 660 l 1
EndSplineSet
EndChar
StartChar: uni0664
Encoding: 1636 1636 18
Width: 800
VWidth: 34
Flags: HW
LayerCount: 2
Fore
SplineSet
438 711 m 1
 540 573 l 1
 469 520 l 2
 412 479 l 1
 416 499 l 1
 501 441 l 2
 539 415 550 360 523 321 c 2
 440 202 l 26
 405 152 l 1
 400 172 l 1
 599 172 l 1
 599 0 l 1
 316 0 l 2
 263 0 201 47 201 110 c 0
 201 172 234 206 248 226 c 2
 332 348 l 1
 275 387 l 2
 204.350585938 436.0625 201.814453125 536.494140625 281 595 c 2
 438 711 l 1
EndSplineSet
EndChar
StartChar: uni0665
Encoding: 1637 1637 19
Width: 1000
VWidth: 34
Flags: HW
LayerCount: 2
Fore
SplineSet
601.818359375 674.3984375 m 0
 711.912109375 606.581054688 770.090820312 437.006835938 771.232421875 290.591796875 c 0
 772.294921875 154.383789062 700.520507812 -10.6259765625 501.592773438 -11.998046875 c 0
 328.831457964 -13.18949228 228.702614971 115.780902657 225.580423948 286.899993896 c 0
 222.744838081 442.311009176 297.480263506 608.041125327 391.787109375 669.881835938 c 0
 455.091796875 711.529296875 536.374023438 714.009765625 601.818359375 674.3984375 c 0
512.106445312 527.64453125 m 0
 501.768554688 533.690429688 498.918945312 534.478515625 486.212890625 526.118164062 c 0
 453.273236672 504.518878093 409.014365482 386.243922391 404.345347072 290.899993896 c 0
 400.492579017 212.224347378 414.355766617 159.404938138 500.407226562 159.998046875 c 0
 575.97265625 160.51953125 599.956054688 197.192382812 599.23828125 289.25 c 0
 598.409179688 395.56640625 535.611328125 512.515625 512.106445312 527.64453125 c 0
EndSplineSet
EndChar
StartChar: uni0666
Encoding: 1638 1638 20
Width: 800
VWidth: 0
Flags: HW
LayerCount: 2
Fore
SplineSet
431 0 m 1
 603 0 l 1
 603 553 l 2
 603 629 540 691 464 691 c 2
 197 691 l 1
 197 519 l 1
 451 519 l 1
 431 539 l 1
 431 0 l 1
EndSplineSet
EndChar
StartChar: uni0667
Encoding: 1639 1639 21
Width: 733
VWidth: 34
Flags: HW
LayerCount: 2
Fore
SplineSet
476.705078125 693.766601562 m 1
 643.10546875 650.233398438 l 1
 491.10546875 69.2333984375 l 2
 479.060546875 23.203125 436.407226562 -7.609375 386.890625 -8.466796875 c 0
 337.479492188 -9.322265625 293.40234375 10.41796875 276 64.779296875 c 2
 90 645.779296875 l 1
 253.810546875 698.220703125 l 1
 391.905273438 267 l 1
 364.905273438 267 l 1
 476.705078125 693.766601562 l 1
EndSplineSet
EndChar
StartChar: uni0669
Encoding: 1641 1641 23
Width: 800
VWidth: 0
Flags: HW
LayerCount: 2
Fore
SplineSet
454.545898438 475 m 2
 454.545898438 490.920898438 451.080078125 497.380859375 448.1953125 501.547851562 c 0
 437.034179688 517.670898438 387.084960938 522.081054688 374.7890625 513.493164062 c 0
 360.510742188 503.521484375 332.068359375 479.93359375 354.750976562 439.844726562 c 0
 369.12890625 420.318359375 388.040039062 418.315429688 524.545898438 428.315429688 c 1
 524.545898438 256.313476562 l 1
 421.063476562 246.313476562 284.486328125 229.750976562 209.140625 348.194335938 c 0
 134.422851562 465.6484375 186.094726562 602.978515625 280.485351562 657.340820312 c 0
 365.918945312 712.661132812 518.646484375 710.6171875 593.608398438 593.450195312 c 0
 615.09375 559.8671875 626.545898438 518.7109375 626.545898438 475 c 2
 626.545898438 0 l 1
 454.545898438 0 l 1
 454.545898438 475 l 2
EndSplineSet
EndChar
StartChar: uni066A
Encoding: 1642 1642 175
Width: 598
Flags: HMW
LayerCount: 2
Fore
SplineSet
58 -12 m 1
 406 662 l 1
 542 662 l 1
 194 -12 l 1
 58 -12 l 1
EndSplineSet
Refer: 173 1632 N 1 0 0 1 226 -240 2
Refer: 173 1632 N 1 0 0 1 -128 233 2
EndChar
StartChar: uni066B
Encoding: 1643 1643 176
Width: 189
VWidth: 34
Flags: HW
LayerCount: 2
Fore
SplineSet
-0 132 m 1
 129 132 l 1
 129 -37 l 2
 129 -130 60 -211 -39 -211 c 2
 -116 -211 l 1
 -116 -82 l 1
 -39 -82 l 2
 -18 -82 0 -67 0 -37 c 2
 -0 132 l 1
EndSplineSet
EndChar
StartChar: uni066E
Encoding: 1646 1646 4
Width: 1000
VWidth: 34
Flags: HW
LayerCount: 2
Fore
SplineSet
695 334 m 1
 867 334 l 1
 867 139 l 2
 867 61.8603216602 805.775069687 1 729 1 c 2
 337 1 l 2
 234.672851562 1 133 77.833984375 133 194 c 2
 133 334 l 1
 305 334 l 1
 305 194 l 2
 305 190.166015625 313.327148438 173 337 173 c 2
 715 173 l 1
 695 153 l 1
 695 334 l 1
EndSplineSet
EndChar
StartChar: uni066F
Encoding: 1647 1647 52
Width: 1000
VWidth: 34
Flags: HW
LayerCount: 2
Fore
SplineSet
666 21.345703125 m 1
 566.311523438 15.9931640625 444.56640625 0.0234375 380.395507812 106.520507812 c 0
 310.895507812 221.196289062 369 350.469726562 451.3359375 404.240234375 c 0
 541.405273438 461.784179688 692.708984375 457.412109375 765.862304688 341.569335938 c 0
 786.8671875 308.306640625 798 267.8203125 798 225 c 0
 798 -59 l 2
 798 -136.159557238 734.905894831 -199 657 -199 c 2
 235 -199 l 2
 137.689454526 -199 50 -126.035246758 50 -19 c 2
 50 223 l 1
 222 223 l 1
 222 -47 l 1
 202 -27 l 1
 646 -27 l 1
 626 -47 l 1
 626 215 l 0
 626 247.245117188 610.959550464 260.616123306 592 267.042479906 c 0
 572.057247042 273.802093871 550.148509872 266.861378029 536.888941798 252.700927734 c 0
 519.562265756 234.197041824 518.583637648 210.363428167 527.604492188 195.479492188 c 0
 541.771484375 171.967773438 558.962890625 147.756835938 666 158.377929688 c 1
 666 21.345703125 l 1
EndSplineSet
EndChar
StartChar: uni0670
Encoding: 1648 1648 172
Width: 0
VWidth: -36
Flags: HW
LayerCount: 2
Fore
SplineSet
22 184 m 9
 22 43 l 2
 22 20 13 0 -22 0 c 1
 -22 184 l 17
 22 184 l 9
EndSplineSet
EndChar
StartChar: uni06A1
Encoding: 1697 1697 25
Width: 1000
VWidth: 34
Flags: HW
LayerCount: 2
Fore
SplineSet
666 21.345703125 m 1
 566.311523438 15.9931640625 444.56640625 0.0234375 380.395507812 106.520507812 c 0
 310.895507812 221.196289062 369 350.469726562 451.3359375 404.240234375 c 0
 541.405273438 461.784179688 692.708984375 457.412109375 765.862304688 341.569335938 c 0
 786.8671875 308.306640625 798 267.8203125 798 225 c 0
 798 -59 l 2
 798 -136.159557238 734.90625 -199 657 -199 c 2
 165 -199 l 2
 67.689453125 -199 -20 -126.03515625 -20 -19 c 2
 -20 133 l 1
 152 133 l 1
 152 -47 l 1
 132 -27 l 1
 646 -27 l 1
 626 -47 l 1
 626 215 l 0
 626 247.245117188 610.959550464 260.616123306 592 267.042479906 c 0
 572.057247042 273.802093871 550.148509872 266.861378029 536.888941798 252.700927734 c 0
 519.562265756 234.197041824 518.583637648 210.363428167 527.604492188 195.479492188 c 0
 541.771484375 171.967773438 558.962890625 147.756835938 666 158.377929688 c 1
 666 21.345703125 l 1
EndSplineSet
EndChar
StartChar: uni06BA
Encoding: 1722 1722 24
Width: 1000
VWidth: 34
Flags: HW
LayerCount: 2
Fore
SplineSet
596 222 m 1
 768 222 l 1
 768 -49 l 2
 768 -124.518716563 707.723826402 -187 631 -187 c 2
 492 -187 l 2
 364.327399182 -187 232 -114.292783676 232 31 c 2
 232 221 l 1
 404 221 l 1
 404 31.6376953125 l 2
 404 5.0625 430.565429688 -15 492 -15 c 2
 636 -15 l 1
 596 -45 l 1
 596 222 l 1
EndSplineSet
EndChar
StartChar: uni06D2
Encoding: 1746 1746 26
Width: 1000
VWidth: 34
Flags: HW
LayerCount: 2
Fore
SplineSet
599.822265625 326.776367188 m 1
 508.177734375 181.223632812 l 1
 460.490234375 211.25 417.370117188 221.184570312 386.60546875 177.897460938 c 0
 381.622070312 168.454101562 345.615234375 68.033203125 215.856445312 33.8232421875 c 0
 191.330078125 27.400390625 187.884765625 8.455078125 189.577148438 2.0654296875 c 0
 189.577148438 2.0654296875 193.206054688 -25 271 -25 c 0
 897 -25 l 1
 897 -197 l 1
 271 -197 l 0
 147.28125 -197 49.0751953125 -139.2578125 23.30859375 -41.96875 c 0
 -4.458984375 62.8779296875 62.212890625 171.384765625 172.143554688 200.176757812 c 0
 247.981177968 220.169668032 205.872099526 271.4185878 311.006072998 342.104133943 c 0
 419.824146644 415.266639952 550.172274935 358.036845746 599.822265625 326.776367188 c 1
EndSplineSet
EndChar
StartChar: uni06D4
Encoding: 1748 1748 177
Width: 496
VWidth: 34
Flags: HW
LayerCount: 2
Fore
SplineSet
204 172 m 1
 436 172 l 1
 292 0 l 1
 60 0 l 1
 204 172 l 1
EndSplineSet
EndChar
StartChar: ar1Dot.above
Encoding: 65588 -1 68
Width: 0
VWidth: 0
Flags: HW
AnchorPoint: "arMarkAboveDot" 0 170 basemark 0
AnchorPoint: "arDotAbove" 0 0 mark 0
LayerCount: 2
Fore
SplineSet
-86 0 m 0
 -86 47 -47 86 0 86 c 0
 47 86 86 47 86 0 c 0
 86 -47 47 -86 0 -86 c 0
 -47 -86 -86 -47 -86 0 c 0
EndSplineSet
EndChar
StartChar: ar1Noqta.above
Encoding: 65588 -1 68
Width: 0
VWidth: 0
Flags: HW
AnchorPoint: "arDotAbove" 0 0 mark 0
LayerCount: 2
Fore
SplineSet
-86 0 m 0
 -86 47.472 -47.472 86 0 86 c 0
 47.472 86 86 47.472 86 0 c 0
 86 -47.472 47.472 -86 0 -86 c 0
 -47.472 -86 -86 -47.472 -86 0 c 0
EndSplineSet
EndChar
StartChar: arAin.fina
Encoding: 65605 -1 85
Width: 536
VWidth: 34
Flags: HW
LayerCount: 2
Fore
SplineSet
556 172 m 1
 556 0 l 1
 526 0 l 1
 526 172 l 1
 556 172 l 1
EndSplineSet
Refer: 8 -1 N 1 0 0 1 0 0 2
Colour: ff00ff
EndChar
StartChar: arAin.init
Encoding: 65567 -1 41
Width: 608
VWidth: 34
GlyphClass: 2
Flags: HW
AnchorPoint: "arMarkAbove" 237 617 basechar 0
AnchorPoint: "arDotAbove" 237 617 basechar 0
AnchorPoint: "arMarkBelow" 274 -150 basechar 0
AnchorPoint: "arDotBelow" 274 -150 basechar 0
LayerCount: 3
Fore
SplineSet
0 0 m 1
 0 172 l 1
 488 172 l 1
 488 0 l 1
 0 0 l 1
463 462 m 1
 413 298 l 1
 318 327 258 319 242 312 c 1
 244 296 268 245 339 180 c 1
 223 54 l 1
 104 164 6 313 113 428 c 0
 193 514 327 503 463 462 c 1
EndSplineSet
EndChar
StartChar: arAin.isol
Encoding: 65544 -1 8
Width: 656
VWidth: 34
Flags: HW
AnchorPoint: "arMarkAbove" 333 553 basechar 0
AnchorPoint: "arDotAbove" 333 553 basechar 0
AnchorPoint: "arMarkBelow" 398 -95 basechar 0
AnchorPoint: "arDotBelow" 398 -95 basechar 0
LayerCount: 3
Fore
SplineSet
536 -100 m 1
 536 -272 l 1
 248 -272 l 2
 175 -272 120 -209 120 -139 c 2
 120 40 l 2
 120 112 176 172 250 172 c 2
 536 172 l 1
 536 0 l 1
 272 0 l 1
 292 20 l 1
 292 -120 l 1
 272 -100 l 1
 536 -100 l 1
305 55 m 1
 217 151 153 278 240 373 c 0
 298 436 391 438 472 415 c 0
 492 410 512 403 530 395 c 1
 464 235 l 1
 448 242 436 246 426 249 c 0
 402 256 385 257 374 256 c 1
 379 239 396 209 431 171 c 1
 305 55 l 1
EndSplineSet
EndChar
StartChar: arAin.medi
Encoding: 65579 -1 56
Width: 488
VWidth: -36
Flags: HW
LayerCount: 2
Fore
SplineSet
508 172 m 1
 508 0 l 1
 478 0 l 1
 478 172 l 1
 508 172 l 1
EndSplineSet
Refer: 41 -1 N 1 0 0 1 0 0 2
Colour: ff00ff
EndChar
StartChar: arAlef.fina.1
Encoding: 65557 -1 31
Width: 0
VWidth: 34
Flags: HW
AnchorPoint: "arHamzaBelow" 160 -99 basechar 0
AnchorPoint: "arMarkBelow" 160 -99 basechar 0
AnchorPoint: "arDotBelow" 160 -99 basechar 0
AnchorPoint: "arHamzaAbove" 180 738 basechar 0
AnchorPoint: "arMarkAbove" 180 738 basechar 0
AnchorPoint: "arDotAbove" 180 738 basechar 0
LayerCount: 2
Back
SplineSet
421.557617188 624 m 5
 593.557617188 624 l 5
 593.557617188 138 l 2
 593.557617188 62 530.557617188 0 454.557617188 0 c 2
 121.557617188 0 l 1
 121.557617188 172 l 1
 441.557617188 172 l 1
 421.557617188 152 l 1
 421.557617188 624 l 5
262.557617188 289 m 1
 422.557617188 289 l 17
 411.557617188 196 345.778320312 149.291015625 252.557617188 124 c 1
 142.557617188 124 l 1
 210.557617188 157 264.557617188 187 262.557617188 289 c 1
126 689.913085938 m 1
 291.115234375 738.086914062 l 1
 422.115234375 289.086914062 l 1
 257 240.913085938 l 1
 126 689.913085938 l 1
EndSplineSet
Fore
SplineSet
262.557617188 289 m 1
 422.557617188 289 l 17
 411.557617188 196 345.778320312 149.291015625 252.557617188 124 c 1
 142.557617188 124 l 1
 210.557617188 157 264.557617188 187 262.557617188 289 c 1
141 639.913085938 m 1
 306.115234375 688.086914062 l 1
 422.115234375 289.086914062 l 1
 257 240.913085938 l 1
 141 639.913085938 l 1
EndSplineSet
EndChar
StartChar: arAlef.fina
Encoding: 65578 -1 55
Width: 360
VWidth: 34
Flags: HW
AnchorPoint: "arMarkBelow" 176 -49 basechar 0
AnchorPoint: "arDotBelow" 176 -49 basechar 0
AnchorPoint: "arHamzaBelow" 176 -49 basechar 0
AnchorPoint: "arMarkAbove" 176 684 basechar 0
AnchorPoint: "arDotAbove" 176 684 basechar 0
AnchorPoint: "arHamzaAbove" 176 684 basechar 0
LayerCount: 2
Fore
SplineSet
380 172 m 1
 380 0 l 1
 350 0 l 1
 350 172 l 1
 380 172 l 1
EndSplineSet
Refer: 35 -1 N -1 0 0 1 360 0 2
EndChar
StartChar: arAlef.isol
Encoding: 65536 -1 0
Width: 412
VWidth: 34
Flags: HW
AnchorPoint: "arHamzaBelow" 196 -29 basechar 0
AnchorPoint: "arHamzaAbove" 196 664 basechar 0
AnchorPoint: "arNuqtaAbove" 196 664 basechar 0
AnchorPoint: "arAltNuqtaBelow" 196 -29 basechar 0
LayerCount: 2
Fore
SplineSet
120 624 m 1
 292 624 l 1
 292 193 l 2
 292 95.888671875 245.364257812 1 120 1 c 1
 120 624 l 1
EndSplineSet
EndChar
StartChar: arBeh.init
Encoding: 65563 -1 37
Width: 548
VWidth: 34
Flags: HW
AnchorPoint: "arMarkBelow" 229 -160 basechar 0
AnchorPoint: "arDotBelow" 229 -160 basechar 0
AnchorPoint: "arHamzaAbove" 234 562 basechar 0
AnchorPoint: "arMarkAbove" 234 562 basechar 0
AnchorPoint: "arDotAbove" 234 562 basechar 0
LayerCount: 3
Fore
SplineSet
256 410 m 1
 428 410 l 1
 428 138 l 2
 428 62 365 0 289 0 c 2
 0 0 l 1
 0 172 l 1
 276 172 l 1
 256 152 l 1
 256 410 l 1
EndSplineSet
EndChar
StartChar: arBeh.isol
Encoding: 65540 -1 4
Width: 974
VWidth: 34
Flags: HW
AnchorPoint: "arNuqtaBelow" 357 -109 basechar 0
AnchorPoint: "arNuqtaAbove" 337 394 basechar 0
LayerCount: 2
Fore
SplineSet
682 334 m 1
 854 334 l 1
 854 139 l 2
 854 61.8603515625 792.775390625 1 716 1 c 2
 324 1 l 2
 221.672851562 1 120 77.833984375 120 194 c 2
 120 334 l 1
 292 334 l 1
 292 194 l 2
 292 190.166015625 300.327148438 173 324 173 c 2
 702 173 l 1
 682 153 l 1
 682 334 l 1
EndSplineSet
EndChar
StartChar: arDal.isol
Encoding: 65538 -1 2
Width: 642
VWidth: 34
Flags: HW
AnchorPoint: "arNuqtaBelow" 264 -142 basechar 0
AnchorPoint: "arNuqtaAbove" 258 600.311 basechar 0
LayerCount: 2
Fore
SplineSet
211.540039062 287.079101562 m 1
 288.459960938 440.920898438 l 1
 359.544921875 405.37890625 513.3828125 325.268554688 521.907226562 141.99609375 c 0
 525.622070312 62.123046875 463.802734375 0 384 0 c 2
 120 0 l 1
 120 172 l 1
 319.666992188 172 l 2
 342.248046875 172 335.3515625 189.393554688 328.243164062 199.512695312 c 0
 303.263671875 235.072265625 258.416992188 263.640625 211.540039062 287.079101562 c 1
EndSplineSet
EndChar
StartChar: arFeh.fina
Encoding: 65574 -1 51
Width: 1074
VWidth: 34
Flags: HW
AnchorPoint: "arDotAbove" 709 558.557 basechar 0
AnchorPoint: "arDotBelow" 559 -339 basechar 0
LayerCount: 2
Fore
SplineSet
1074 171 m 1
 1074 0 l 1
 776 0 l 2
 685 0 584 0 520 106 c 0
 450 221 509 349 591 403 c 0
 681 461 833 457 906 341 c 0
 927 308 938 267 938 224 c 0
 938 -60 l 2
 938 -137 875 -200 797 -200 c 2
 305 -200 l 2
 208 -200 120 -127 120 -20 c 2
 120 132 l 1
 292 132 l 1
 292 -48 l 1
 272 -28 l 1
 786 -28 l 1
 766 -48 l 1
 766 214 l 0
 766 246 751 260 732 266 c 0
 712 273 690 266 677 252 c 0
 660 233 659 209 668 194 c 0
 682 170 689 170 776 171 c 2
 1074 171 l 1
EndSplineSet
EndChar
StartChar: arFeh.init
Encoding: 65577 -1 54
Width: 613
VWidth: 34
Flags: HW
AnchorPoint: "arMarkAbove" 264 759 basechar 0
AnchorPoint: "arDotAbove" 264 759 basechar 0
AnchorPoint: "arMarkBelow" 273 -160 basechar 0
AnchorPoint: "arDotBelow" 273 -160 basechar 0
LayerCount: 3
Fore
SplineSet
0 172 m 1
 341 172 l 1
 321 152 l 1
 321 414 l 0
 321 446 306 460 287 466 c 0
 267 473 245 466 232 452 c 0
 215 433 214 409 223 394 c 0
 237 370 254 346 361 357 c 1
 361 220 l 1
 261 215 139 200 75 306 c 0
 5 421 64 549 146 603 c 0
 236 661 388 657 461 541 c 0
 482 508 493 467 493 424 c 0
 493 140 l 2
 493 63 430 0 352 0 c 2
 0 0 l 17
 0 172 l 1
EndSplineSet
EndChar
StartChar: arFeh.isol
Encoding: 65552 -1 25
Width: 1058
VWidth: 34
Flags: HW
AnchorPoint: "arMarkBelow" 559 -339 basechar 0
AnchorPoint: "arDotBelow" 559 -339 basechar 0
AnchorPoint: "arMarkAbove" 709 559 basechar 0
AnchorPoint: "arDotAbove" 709 559 basechar 0
LayerCount: 3
Fore
SplineSet
806 21 m 1
 706 16 584 1 520 107 c 0
 450 222 509 350 591 404 c 0
 681 462 833 458 906 342 c 0
 927 309 938 268 938 225 c 0
 938 -59 l 2
 938 -136 875 -199 797 -199 c 2
 305 -199 l 2
 208 -199 120 -126 120 -19 c 2
 120 133 l 1
 292 133 l 1
 292 -47 l 1
 272 -27 l 1
 786 -27 l 1
 766 -47 l 1
 766 215 l 0
 766 247 751 261 732 267 c 0
 712 274 690 267 677 253 c 0
 660 234 659 210 668 195 c 0
 682 171 699 147 806 158 c 1
 806 21 l 1
EndSplineSet
EndChar
StartChar: arGaf.isol
Encoding: 65612 -1 152
Width: 981
VWidth: 0
Flags: HW
AnchorPoint: "arMarkAbove" 353 750 basechar 0
AnchorPoint: "arDotAbove" 353 750 basechar 0
AnchorPoint: "arMarkBelow" 483 -149 basechar 0
AnchorPoint: "arDotBelow" 483 -149 basechar 0
AnchorPoint: "arShartaAbove" 635 768 basechar 0
LayerCount: 2
Fore
SplineSet
282 172 m 1
 426 0 l 1
 264 0 l 1
 120 172 l 1
 282 172 l 1
EndSplineSet
Refer: 61 -1 N 1 0 0 1 264 0 2
EndChar
StartChar: arHah.init
Encoding: 65569 -1 43
Width: 746
VWidth: 0
Flags: HW
AnchorPoint: "arMarkAbove" 268 627 basechar 0
AnchorPoint: "arDotAbove" 268 627 basechar 0
AnchorPoint: "arMarkBelow" 293 -160 basechar 0
AnchorPoint: "arDotBelow" 293 -160 basechar 0
LayerCount: 2
Fore
SplineSet
0 1 m 1
 0 173 l 1
 365 173 l 1
 361 157 l 1
 351 167 339 178 328 189 c 0
 296 220 262 254 238 271 c 0
 198 299 158 309 117 319 c 1
 157 487 l 1
 198 477 268 461 338 411 c 0
 402 365 450 309 486 277 c 0
 543 227 562 238 620 241 c 1
 626 161 l 0
 628 134 621 1 493 1 c 0
 0 1 l 1
EndSplineSet
EndChar
StartChar: arHah.isol
Encoding: 65537 -1 1
Width: 776
VWidth: 34
Flags: HW
AnchorPoint: "arNuqtaAbove" 408 607 basechar 0
AnchorPoint: "arNuqtaBelow" 398 -95 basechar 0
AnchorPoint: "arAltNuqtaBelow" 448 -34 basechar 0
LayerCount: 2
Fore
SplineSet
531 -189 m 1
 531 -361 l 1
 291 -361 l 2
 197 -361 120 -287 120 -194 c 2
 120 -9 l 2
 120 80 189 173 298 173 c 2
 392 173 l 1
 386 180 380 187 374 194 c 0
 338 238 309 278 239 304 c 1
 299 464 l 1
 436 412 500 310 527 280 c 0
 571 232 618 243 656 243 c 1
 656 157 l 0
 656 157 672 1 523 1 c 2
 272 1 l 1
 292 21 l 1
 292 -209 l 1
 272 -189 l 1
 531 -189 l 1
EndSplineSet
EndChar
StartChar: arHah.isol2
Encoding: 65558 -1 32
Width: 776
VWidth: 34
Flags: HW
AnchorPoint: "arMarkBelow" 398 -95 basechar 0
AnchorPoint: "arMarkAbove" 408 607 basechar 0
AnchorPoint: "arDotAbove" 408 607 basechar 0
AnchorPoint: "arDotBelow" 518 -134 basechar 0
LayerCount: 2
Fore
SplineSet
292 -361 m 1
 197.319135224 -361 120 -287.606053974 120 -194 c 2
 120 -9 l 2
 120 80 189 173 298 173 c 2
 392 173 l 1
 386 180 380 187 374 194 c 0
 338 238 309 278 239 304 c 1
 299 464 l 1
 436 412 500 310 527 280 c 0
 571 232 618 243 656 243 c 1
 656 157 l 0
 656 157 672 1 523 1 c 2
 272 1 l 1
 292 21 l 1
 292 -361 l 1
EndSplineSet
EndChar
StartChar: arHamza.kaf
Encoding: 65596 -1 76
Width: 0
VWidth: -36
Flags: HW
AnchorPoint: "arHamzaAbove" 0 0 mark 0
LayerCount: 2
Fore
SplineSet
96.29296875 211.748046875 m 1
 96.29296875 111.748046875 l 1
 56.3115234375 111.748046875 l 1
 67.330078125 88.3837890625 l 2
 70.888671875 79.7509765625 85.3408203125 55.5 68.3408203125 29.095703125 c 0
 53.505859375 6.052734375 20.7216796875 0.55078125 13.73828125 0.7236328125 c 2
 -96.29296875 0.7236328125 l 1
 -96.29296875 100.723632812 l 1
 -49.052734375 100.723632812 l 1
 -59.6767578125 123.252929688 l 2
 -59.6767578125 123.252929688 -83.7998046875 163.701171875 -56.8408203125 191.5 c 0
 -46.814453125 201.837890625 -27.662109375 211.748046875 -3.560546875 211.748046875 c 2
 96.29296875 211.748046875 l 1
EndSplineSet
EndChar
StartChar: arHeh.fina2
Encoding: 65622 -1 162
Width: 478
VWidth: 34
Flags: HW
AnchorPoint: "arMarkAbove" 254 382 basechar 0
AnchorPoint: "arHamzaAbove" 254 382 basechar 0
AnchorPoint: "arDotAbove" 254 382 basechar 0
AnchorPoint: "arMarkBelow" 299 -160 basechar 0
AnchorPoint: "arDotBelow" 299 -160 basechar 0
LayerCount: 2
Fore
SplineSet
292 -108 m 1
 120 -108 l 1
 120 34 l 2
 120 110 183 172 259 172 c 2
 498 172 l 1
 498 0 l 1
 272 0 l 1
 292 20 l 1
 292 -108 l 1
EndSplineSet
EndChar
StartChar: arHeh.init
Encoding: 65568 -1 42
Width: 842
VWidth: 34
Flags: HW
AnchorPoint: "arMarkBelow" 336 -149 basechar 0
AnchorPoint: "arDotBelow" 336 -149 basechar 0
AnchorPoint: "arMarkAbove" 336 628 basechar 0
AnchorPoint: "arDotAbove" 336 628 basechar 0
LayerCount: 2
Fore
SplineSet
269 451 m 1
 269 623 l 1
 584 623 726 320 722 138 c 0
 721 57 656 1 584 1 c 2
 0 1 l 1
 0 173 l 1
 568 173 l 1
 552 153 l 1
 541 295 436 451 269 451 c 1
323 1 m 1
 321 173 l 1
 324 173 327 174 326 177 c 24
 320 193 312 206 304 215 c 0
 288 232 274 237 265 238 c 0
 260 239 258 236 258 231 c 2
 258 137 l 1
 86 137 l 1
 86 234 l 2
 86 295 116 352 162 382 c 0
 262 448 392 398 462 291 c 0
 502 230 518 153 478 86 c 0
 443 27 380 2 323 1 c 1
EndSplineSet
EndChar
StartChar: arHeh.init2
Encoding: 65621 -1 161
Width: 498
VWidth: 34
Flags: HW
AnchorPoint: "arMarkAbove" 184 562 basechar 0
AnchorPoint: "arDotAbove" 184 562 basechar 0
LayerCount: 2
Back
SplineSet
300 18 m 4
 247 -39 199.064341099 -122.194500597 186 -191 c 4
 170.999994904 -269.999991953 247 -327 318 -249 c 4
EndSplineSet
Fore
SplineSet
302 -151 m 1
 374 -207 l 1
 334 -269 232 -334 161 -279 c 0
 131 -256 115 -215 125 -160 c 0
 141 -73 198 25 265 97 c 1
 335 39 l 1
 296 -3 257 -71 247 -122 c 0
 237 -174 278 -177 302 -151 c 1
206 310 m 1
 378 310 l 1
 378 138 l 2
 378 62 315 0 239 0 c 2
 0 0 l 1
 0 172 l 1
 226 172 l 1
 206 152 l 1
 206 310 l 1
EndSplineSet
EndChar
StartChar: arHeh.isol
Encoding: 65548 -1 12
Width: 689
VWidth: 34
Flags: HW
AnchorPoint: "arMarkBelow" 374 -161 basechar 0
AnchorPoint: "arDotBelow" 374 -161 basechar 0
AnchorPoint: "arHamzaAbove" 440 499 basechar 0
AnchorPoint: "arMarkAbove" 440 604 basechar 0
AnchorPoint: "arDotAbove" 440 604 basechar 0
LayerCount: 3
Fore
SplineSet
284 154 m 1
 284 164 l 1
 284 172 l 1
 417 172 l 1
 397 152 l 1
 397 397 l 1
 569 397 l 1
 569 138 l 2
 569 62 507 0 431 0 c 2
 291 0 l 2
 246 0 204 17 173 45 c 0
 112 100 94 209 169 282 c 0
 245 356 284 376 320 461 c 1
 480 397 l 1
 434 284 389 250 284 154 c 1
EndSplineSet
EndChar
StartChar: arHeh.medi
Encoding: 65555 -1 29
Width: 653
VWidth: 34
Flags: HW
LayerCount: 2
Fore
SplineSet
547 -205 m 1
 375 -205 l 1
 375 35 l 2
 375 111.4453125 436.78125 173 513 173 c 2
 653 173 l 1
 653 1 l 1
 527.0625 1 l 1
 547 21 l 1
 547 -205 l 1
402.452148438 -211.758789062 m 1
 233.547851562 -244.241210938 l 1
 217.88671875 -162.807617188 205.053710938 -193.7734375 148.889648438 -103.287109375 c 0
 123.629882812 -62.4248046875 123.356445312 1 98.478515625 1 c 2
 0 1 l 1
 0 173 l 1
 141.719726562 173 l 2
 282.302734375 173 275.857421875 16.9912109375 295.110351562 -12.712890625 c 0
 329 -65 378.11328125 -85.1923828125 402.452148438 -211.758789062 c 1
EndSplineSet
EndChar
StartChar: arHeh.medi2
Encoding: 65555 -1 29
Width: 653
VWidth: 34
Flags: HW
AnchorPoint: "arMarkAbove" 293 232 basechar 0
AnchorPoint: "arDotAbove" 293 232 basechar 0
AnchorPoint: "arMarkBelow" 351 -402 basechar 0
AnchorPoint: "arDotBelow" 351 -402 basechar 0
LayerCount: 2
Fore
SplineSet
547 -206 m 1
 375 -206 l 1
 375 34 l 2
 375 110 437 172 513 172 c 2
 673 172 l 1
 673 0 l 1
 527 0 l 1
 547 20 l 1
 547 -206 l 1
402 -213 m 1
 234 -245 l 1
 218 -164 205 -194 149 -104 c 0
 124 -63 123 0 98 0 c 2
 0 0 l 1
 0 172 l 1
 142 172 l 2
 283 172 276 16 295 -14 c 0
 329 -66 378 -86 402 -213 c 1
EndSplineSet
EndChar
StartChar: arKaf.init
Encoding: 65570 -1 44
Width: 718
VWidth: 34
Flags: HW
AnchorPoint: "arMarkAbove" 279 770 basechar 0
AnchorPoint: "arDotAbove" 89 750 basechar 0
AnchorPoint: "arMarkBelow" 249 -149 basechar 0
AnchorPoint: "arDotBelow" 249 -149 basechar 0
AnchorPoint: "arShartaAbove" 371 768 basechar 0
LayerCount: 2
Fore
SplineSet
556 740 m 1
 560 568 l 1
 541 566 368 528 279 483 c 1
 285 509 l 1
 558 229 l 2
 643 142 583 1 462 1 c 2
 0 1 l 1
 0 173 l 1
 393 173 l 1
 385 161 l 1
 156 395 l 2
 95 457 89 570 170 619 c 0
 293 694 493 738 556 740 c 1
EndSplineSet
EndChar
StartChar: arKaf.isol
Encoding: 65546 -1 10
Width: 846
VWidth: 34
Flags: HW
LayerCount: 2
Fore
SplineSet
282 172.240234375 m 1
 426.241210938 -0.2392578125 l 1
 264.241210938 -0.2392578125 l 1
 120 172.240234375 l 1
 282 172.240234375 l 1
554.12109375 692 m 1
 726.12109375 692 l 1
 726.12109375 138 l 2
 726.12109375 62 663.12109375 0 587.12109375 0 c 2
 264.12109375 0 l 1
 264.12109375 172 l 1
 574.12109375 172 l 1
 554.12109375 152 l 1
 554.12109375 692 l 1
501.573242188 513.748046875 m 1
 501.573242188 413.748046875 l 1
 461.591796875 413.748046875 l 1
 472.610351562 390.383789062 l 2
 476.168945312 381.750976562 490.62109375 357.5 473.62109375 331.095703125 c 0
 458.786132812 308.052734375 426.001953125 302.55078125 419.018554688 302.723632812 c 2
 308.987304688 302.723632812 l 1
 308.987304688 402.723632812 l 1
 356.227539062 402.723632812 l 1
 345.603515625 425.252929688 l 2
 345.603515625 425.252929688 321.48046875 465.701171875 348.439453125 493.5 c 0
 358.465820312 503.837890625 377.618164062 513.748046875 401.719726562 513.748046875 c 2
 501.573242188 513.748046875 l 1
EndSplineSet
EndChar
StartChar: arLam.init.1
Encoding: 65556 -1 30
Width: 713
VWidth: 34
Flags: HW
AnchorPoint: "arMarkBelow" 511 -99 basechar 0
AnchorPoint: "arDotBelow" 511 -99 basechar 0
AnchorPoint: "arMarkAbove" 511 710 basechar 0
AnchorPoint: "arDotAbove" 511 710 basechar 0
LayerCount: 2
Back
SplineSet
421.557617188 692 m 1
 593.557617188 692 l 1
 593.557617188 138 l 2
 593.557617188 62 530.557617188 0 454.557617188 0 c 2
 121.557617188 0 l 1
 121.557617188 172 l 1
 441.557617188 172 l 1
 421.557617188 152 l 1
 421.557617188 692 l 1
262.557617188 289 m 1
 422.557617188 289 l 17
 411.557617188 196 345.778320312 149.291015625 252.557617188 124 c 1
 142.557617188 124 l 1
 210.557617188 157 264.557617188 187 262.557617188 289 c 1
126 689.913085938 m 1
 291.115234375 738.086914062 l 1
 422.115234375 289.086914062 l 1
 257 240.913085938 l 1
 126 689.913085938 l 1
EndSplineSet
Fore
SplineSet
421.557617188 623 m 1
 593.557617188 623 l 1
 593.557617188 138 l 2
 593.557617188 62 530.557617188 0 454.557617188 0 c 2
 121.557617188 0 l 1
 121.557617188 172 l 1
 441.557617188 172 l 1
 421.557617188 152 l 1
 421.557617188 623 l 1
EndSplineSet
EndChar
StartChar: arLam.init
Encoding: 65561 -1 35
Width: 360
VWidth: 34
Flags: HW
AnchorPoint: "arNuqtaBelow" 145 -99 basechar 0
AnchorPoint: "arNuqtaAbove" 175 724 basechar 0
LayerCount: 2
Fore
SplineSet
88 624 m 1
 260 624 l 1
 260 138 l 2
 260 62 197 0 121 0 c 2
 0 0 l 1
 0 172 l 1
 108 172 l 1
 88 152 l 1
 88 624 l 1
EndSplineSet
EndChar
StartChar: arLam.isol
Encoding: 65545 -1 9
Width: 780
VWidth: 34
GlyphClass: 2
Flags: HW
AnchorPoint: "arMarkBelow" 387 -258 basechar 0
AnchorPoint: "arDotBelow" 387 -258 basechar 0
AnchorPoint: "arMarkAbove" 574 674 basechar 0
AnchorPoint: "arDotAbove" 574 674 basechar 0
LayerCount: 3
Fore
SplineSet
488 624 m 1
 660 624 l 1
 660 -8 l 2
 660 -84 598 -148 520 -148 c 2
 261 -148 l 2
 185 -148 120 -86 120 -9 c 2
 120 180 l 1
 292 180 l 1
 292 4 l 1
 272 24 l 1
 508 24 l 1
 488 4 l 1
 488 624 l 1
EndSplineSet
EndChar
StartChar: arMeem.init
Encoding: 65610 -1 90
Width: 675
VWidth: 34
Flags: HW
AnchorPoint: "arMarkAbove" 307 608 basechar 0
AnchorPoint: "arDotAbove" 307 608 basechar 0
AnchorPoint: "arMarkBelow" 309 -150 basechar 0
AnchorPoint: "arDotBelow" 309 -150 basechar 0
LayerCount: 3
Fore
SplineSet
314 172 m 0
 381 172 383 194 383 194 c 0
 383 199 377 229 333 275 c 0
 323 286 310 286 301 285 c 0
 288 283 288 268 288 259 c 2
 288 168 l 2
 288 83 261 0 145 0 c 2
 0 0 l 1
 0 172 l 1
 136 172 l 1
 116 152 l 1
 116 271 l 2
 116 324 137 373 172 406 c 0
 251 481 380 475 458 393 c 0
 517 330 555 265 555 195 c 0
 555 50 411 0 314 0 c 0
 248 0 l 1
 248 172 l 1
 314 172 l 0
EndSplineSet
EndChar
StartChar: arMeem.isol
Encoding: 65547 -1 11
Width: 957
VWidth: 34
Flags: HW
AnchorPoint: "arMarkAbove" 589 608 basechar 0
AnchorPoint: "arDotAbove" 589 608 basechar 0
AnchorPoint: "arMarkBelow" 591 -150 basechar 0
AnchorPoint: "arDotBelow" 591 -150 basechar 0
LayerCount: 3
Fore
SplineSet
282 172 m 1
 426 0 l 1
 264 0 l 1
 120 172 l 1
 282 172 l 1
EndSplineSet
Refer: 90 -1 N 1 0 0 1 282 0 2
EndChar
StartChar: arMem.isol
Encoding: 65547 -1 11
Width: 794
VWidth: 34
Flags: HW
AnchorPoint: "arNuqtaBelow" 429 -149 basechar 0
AnchorPoint: "arNuqtaAbove" 427 609.371 basechar 0
LayerCount: 2
Fore
SplineSet
434.424804688 172.696289062 m 0
 501.51953125 172.696289062 502.6015625 195.419921875 502.6015625 195.419921875 c 0
 502.583007812 200.806640625 497.244140625 229.203125 453.37890625 275.623046875 c 0
 443.418945312 286.1640625 429.90234375 287.560546875 420.633789062 286.10546875 c 0
 407.658203125 284.068359375 408.3203125 269.513671875 408.3203125 260.298828125 c 2
 408.3203125 169.319335938 l 2
 408.3203125 84.099609375 380.681640625 0.8154296875 264.693359375 0.8154296875 c 2
 120 0.8154296875 l 1
 120 172.815429688 l 1
 256.3203125 172.815429688 l 1
 237.30078125 153 l 1
 236.3203125 271.751953125 l 2
 235.883789062 324.58203125 257.375 374.03515625 292.44140625 407.286132812 c 0
 371.2578125 482.01953125 500.53125 476.151367188 578.392578125 393.7578125 c 0
 637.657226562 331.041015625 674.36328125 265.999023438 674.600585938 196.00390625 c 0
 675.091796875 51.2607421875 531.904296875 0.6962890625 434.424804688 0.6962890625 c 0
 368.424804688 0.6962890625 l 1
 368.424804688 172.696289062 l 1
 434.424804688 172.696289062 l 0
EndSplineSet
EndChar
StartChar: arNoon.fina
Encoding: 65564 -1 38
Width: 744
VWidth: 34
Flags: HW
LayerCount: 2
Fore
SplineSet
744 173 m 1
 744 1 l 1
 603 1 l 1
 603 173 l 1
 744 173 l 1
EndSplineSet
Refer: 24 -1 N 1 0 0 1 0 0 2
EndChar
StartChar: arNoon.isol
Encoding: 65551 -1 24
Width: 776
VWidth: 34
Flags: HW
AnchorPoint: "arNuqtaBelow" 299 -297 basechar 0
AnchorPoint: "arNuqtaAbove" 238 302 basechar 0
LayerCount: 2
Fore
SplineSet
484 222 m 1
 656 222 l 1
 656 -49 l 2
 656 -124.518554688 595.723632812 -187 519 -187 c 2
 380 -187 l 2
 252.327148438 -187 120 -114.29296875 120 31 c 2
 120 221 l 1
 292 221 l 1
 292 31.6376953125 l 2
 292 5.0625 318.565429688 -15 380 -15 c 2
 524 -15 l 1
 484 -45 l 1
 484 222 l 1
EndSplineSet
EndChar
StartChar: arQaf.isol
Encoding: 65575 -1 52
Width: 988
VWidth: 34
Flags: HW
AnchorPoint: "arMarkBelow" 489 -338 basechar 0
AnchorPoint: "arDotBelow" 489 -338 basechar 0
AnchorPoint: "arMarkAbove" 639 560 basechar 0
AnchorPoint: "arDotAbove" 639 560 basechar 0
LayerCount: 3
Fore
SplineSet
736 21 m 1
 636 16 514 1 450 107 c 0
 380 222 439 350 521 404 c 0
 611 462 763 458 836 342 c 0
 857 309 868 268 868 225 c 0
 868 -59 l 2
 868 -136 805 -199 727 -199 c 2
 305 -199 l 2
 208 -199 120 -126 120 -19 c 2
 120 223 l 1
 292 223 l 1
 292 -47 l 1
 272 -27 l 1
 716 -27 l 1
 696 -47 l 1
 696 215 l 0
 696 247 681 261 662 267 c 0
 642 274 620 267 607 253 c 0
 590 234 589 210 598 195 c 0
 612 171 629 147 736 158 c 1
 736 21 l 1
EndSplineSet
EndChar
StartChar: arReh.fina
Encoding: 65560 -1 34
Width: 536
VWidth: 34
Flags: HW
LayerCount: 2
Fore
SplineSet
536 173 m 1
 536 1 l 1
 391 1 l 1
 391 173 l 1
 536 173 l 1
EndSplineSet
Refer: 3 -1 N 1 0 0 1 0 0 2
Colour: ff00ff
EndChar
StartChar: arReh.isol
Encoding: 65539 -1 3
Width: 447
VWidth: 34
GlyphClass: 2
Flags: HW
AnchorPoint: "arMarkBelow" 123 -380 basechar 0
AnchorPoint: "arDotBelow" 123 -380 basechar 0
AnchorPoint: "arMarkAbove" 241 441 basechar 0
AnchorPoint: "arDotAbove" 241 441 basechar 0
LayerCount: 3
Fore
SplineSet
155 221 m 1
 327 221 l 1
 327 3 l 2
 327 -120 235 -230 102 -230 c 2
 0 -230 l 1
 0 -58 l 1
 102 -58 l 2
 131 -58 155 -38 155 3 c 2
 155 221 l 1
EndSplineSet
EndChar
StartChar: arSad.head
Encoding: 65607 -1 87
Width: 0
VWidth: 34
Flags: HW
AnchorPoint: "arMarkBelow" 0 -200 basechar 0
AnchorPoint: "arDotBelow" 0 -200 basechar 0
AnchorPoint: "arMarkAbove" 0 507 basechar 0
AnchorPoint: "arDotAbove" 0 507 basechar 0
LayerCount: 2
Fore
SplineSet
-256 172 m 17
 -173 288 -46 506 152 433 c 0
 245 394 281 304 283 207 c 0
 285 141 l 2
 288 63 223 0 146 0 c 2
 -286 0 l 1
 -286 172 l 1
 132 172 l 1
 112 152 l 1
 113 203 l 0
 111 268 97 269 89 273 c 0
 46 287 -48 174 -122 62 c 9
 -256 172 l 17
EndSplineSet
EndChar
StartChar: arSad.init
Encoding: 65571 -1 45
Width: 900
VWidth: 34
Flags: HW
AnchorPoint: "arMarkAbove" 308 562 basechar 0
AnchorPoint: "arDotAbove" 308 562 basechar 0
AnchorPoint: "arMarkBelow" 415 -149 basechar 0
AnchorPoint: "arDotBelow" 415 -149 basechar 0
LayerCount: 2
Back
SplineSet
188.719726562 172 m 17
 272.11328125 287.846679688 398.805664062 506.325195312 596.611328125 433.000976562 c 0
 689.778320312 393.870117188 725.594726562 304.6484375 727.96875 207.331054688 c 0
 729.956054688 140.764648438 l 2
 732.654296875 62.4912109375 667.624023438 0 591 0 c 2
 0 0 l 1
 0 172 l 1
 577 172 l 1
 557 152 l 1
 557.03125 202.668945312 l 0
 555.4453125 267.698242188 541.6953125 269.040039062 533.416992188 272.950195312 c 0
 490.716796875 286.760742188 397 174 323 62 c 9
 188.719726562 172 l 17
52 311 m 1
 224 311 l 1
 224 92 l 1
 52 92 l 1
 52 311 l 1
EndSplineSet
Fore
SplineSet
246 0 m 1
 0 0 l 1
 0 172 l 1
 246 172 l 1
 246 0 l 1
102 311 m 1
 274 311 l 1
 274 92 l 1
 102 92 l 1
 102 311 l 1
EndSplineSet
Refer: 87 -1 N 1 0 0 1 494 0 2
EndChar
StartChar: arSad.isol
Encoding: 65542 -1 6
Width: 1286
VWidth: 34
Flags: HW
AnchorPoint: "arNuqtaBelow" 229 -311 basechar 0
AnchorPoint: "arNuqtaAbove" 563 426.773 basechar 0
LayerCount: 2
Fore
SplineSet
489 311 m 1
 661 311 l 1
 661 -93 l 2
 661 -170 598 -231 522 -231 c 2
 255 -231 l 2
 176 -231 120 -163 120 -89 c 2
 120 219 l 1
 292 219 l 1
 292 -79 l 1
 272 -59 l 1
 509 -59 l 1
 489 -79 l 1
 489 311 l 1
EndSplineSet
Refer: 87 -1 S 1 0 0 1 880.519 0 2
EndChar
StartChar: arSad.mark
Encoding: 65608 -1 88
Width: 0
VWidth: 34
Flags: HW
AnchorPoint: "arMarkAboveDot" 0 240 basemark 0
AnchorPoint: "arHamzaAbove" 0 0 mark 0
LayerCount: 3
Fore
SplineSet
-74 -0 m 1
 -172 -0 l 1
 -172 86 l 1
 -74 86 l 1
 -74 -0 l 1
EndSplineSet
Refer: 87 -1 N 0.5 0 0 0.5 30 -0 2
EndChar
StartChar: arSeen.init
Encoding: 65562 -1 36
Width: 883
VWidth: 34
Flags: HW
LayerCount: 2
Fore
SplineSet
146 410 m 1
 318 410 l 1
 318 138 l 2
 318 62 255 0 179 0 c 2
 0 0 l 1
 0 172 l 1
 166 172 l 1
 146 152 l 1
 146 410 l 1
591 410 m 1
 763 410 l 1
 763 138 l 2
 763 61 699 0 623 0 c 2
 521 0 l 1
 521 172 l 1
 611 172 l 1
 591 152 l 1
 591 410 l 1
367 410 m 1
 539 410 l 1
 539 138 l 2
 539 62 476 0 400 0 c 2
 279 0 l 1
 279 172 l 1
 387 172 l 1
 367 152 l 1
 367 410 l 1
EndSplineSet
EndChar
StartChar: arSeen.isol
Encoding: 65541 -1 5
Width: 1228
VWidth: 34
Flags: HW
AnchorPoint: "arDotBelow" 399 -361 basechar 0
AnchorPoint: "arDotAbove" 794 562 basechar 0
LayerCount: 2
Fore
SplineSet
489 412 m 1
 661 412 l 1
 661 -93 l 2
 661 -170 598 -231 522 -231 c 2
 255 -231 l 2
 176 -231 120 -163 120 -89 c 2
 120 219 l 1
 292 219 l 1
 292 -79 l 1
 272 -59 l 1
 509 -59 l 1
 489 -79 l 1
 489 412 l 1
936 410 m 1
 1108 410 l 1
 1108 138 l 2
 1108 61 1044 0 968 0 c 2
 866 0 l 1
 866 172 l 1
 956 172 l 1
 936 152 l 1
 936 410 l 1
712 410 m 1
 884 410 l 1
 884 138 l 2
 884 62 821 0 745 0 c 2
 653 0 l 1
 653 172 l 1
 732 172 l 1
 712 152 l 1
 712 410 l 1
EndSplineSet
EndChar
StartChar: arSharta.kaf
Encoding: 65614 -1 155
Width: 0
VWidth: 0
Flags: HW
LayerCount: 2
Back
SplineSet
555.676757812 739.96875 m 1
 560.32421875 567.998046875 l 1
 541.563476562 566.4375 367.747070312 527.981445312 279.00390625 483.341796875 c 1
 284.671875 509.329101562 l 1
 558.452148438 229.163085938 l 2
 643.323242188 142.3125 583.225585938 1 462 1 c 2
 0 1 l 1
 0 173 l 1
 393 173 l 1
 384.73046875 161 l 1
 155.547851562 394.836914062 l 2
 94.6962890625 456.923828125 89.376953125 570.391601562 169.987304688 618.892578125 c 0
 293.188476562 694.255859375 492.250976562 738.25390625 555.676757812 739.96875 c 1
EndSplineSet
Fore
SplineSet
-133.33203125 665.431640625 m 1
 -185.7890625 750.568359375 l 1
 -72.7265625 820.233398438 130.65625 865.564453125 183.087890625 866.981445312 c 1
 185.7890625 767.018554688 l 1
 164.22265625 766.435546875 -48.396484375 717.766601562 -133.33203125 665.431640625 c 1
EndSplineSet
EndChar
StartChar: arWaw.fina
Encoding: 65559 -1 33
Width: 519
VWidth: 34
Flags: HW
LayerCount: 3
Fore
SplineSet
539 172 m 1
 539 0 l 1
 374 0 l 1
 374 172 l 1
 539 172 l 1
EndSplineSet
Refer: 13 -1 N 1 0 0 1 0 0 2
Colour: ff00ff
EndChar
StartChar: arWaw.isol
Encoding: 65549 -1 13
Width: 576
VWidth: 34
GlyphClass: 2
Flags: HW
AnchorPoint: "arMarkBelow" 219 -359 basechar 0
AnchorPoint: "arDotBelow" 219 -359 basechar 0
AnchorPoint: "arHamzaAbove" 283 554 basechar 0
AnchorPoint: "arMarkAbove" 283 554 basechar 0
AnchorPoint: "arDotAbove" 283 554 basechar 0
LayerCount: 3
Fore
SplineSet
284 267 m 2
 284 274 281 273 275 272 c 0
 249 269 205 244 194 195 c 0
 191 184 193 172 210 172 c 2
 338 172 l 1
 338 0 l 1
 210 0 l 2
 101 0 14 88 20 195 c 0
 34 353 164 444 279 444 c 0
 377 444 456 368 456 267 c 2
 456 3 l 2
 456 -110 371 -229 232 -229 c 2
 39 -229 l 1
 39 -57 l 1
 232 -57 l 2
 258 -57 284 -34 284 0 c 2
 284 267 l 2
EndSplineSet
EndChar
StartChar: arYeh.fina.alt1
Encoding: 65565 -1 39
Width: 724
VWidth: 34
Flags: HW
AnchorPoint: "arNuqtaBelow" 409 -340 basechar 0
AnchorPoint: "arNuqtaAbove" 337 306 basechar 0
AnchorPoint: "arHamzaAbove" 337 306 basechar 0
LayerCount: 2
Fore
SplineSet
724 173 m 1
 724 1 l 1
 471 1 l 1
 471 173 l 1
 724 173 l 1
482 92 m 1
 654 92 l 1
 654 -51 l 2
 654 -122.88671875 597.609375 -187 521 -187 c 2
 384 -187 l 2
 257.846679688 -187 120 -117.606445312 120 38 c 2
 120 220 l 1
 292 220 l 1
 292 38 l 2
 292 7.6064453125 326.153320312 -15 384 -15 c 2
 502 -15 l 1
 482 -35 l 1
 482 92 l 1
EndSplineSet
EndChar
StartChar: arYeh.fina.alt2
Encoding: 65566 -1 40
Width: 918
VWidth: 34
Flags: HW
AnchorPoint: "arHamzaAbove" 337 338 basechar 0
AnchorPoint: "arDotAbove" 337 338 basechar 0
AnchorPoint: "arDotBelow" 409 -308 basechar 0
LayerCount: 2
Fore
SplineSet
918 173 m 1
 918 1 l 1
 807 1 l 2
 732.727539062 1 677.7890625 56.1484375 674.025390625 129.41015625 c 2
 669.5 217.5 l 1
 686.5 207.5 l 1
 655.5 196 601.581054688 155.801757812 584 142.75 c 1
 587.25 164.75 l 1
 689.033203125 48.5576171875 l 2
 769.083007812 -42.8251953125 696.77734375 -162 587 -162 c 2
 321.821289062 -162 l 2
 195.52734375 -162.865234375 120 -56.8203125 120 48 c 2
 120 251 l 1
 292 251 l 1
 292 48 l 2
 292 17.330078125 306.151367188 10 320.376953125 10 c 2
 514 10 l 1
 506.25 -3.75 l 1
 449.9140625 60.36328125 l 2
 392.665039062 125.515625 396.752929688 202.515625 453.1875 254.724609375 c 0
 492.522460938 292.559570312 541.079101562 323.860351562 583.30078125 348.21484375 c 0
 681.287109375 404.736328125 782.595703125 365.348632812 821.805664062 292.89453125 c 0
 841.348632812 256.780273438 843.78125 222.608398438 844.124023438 153 c 1
 824 173 l 1
 918 173 l 1
EndSplineSet
EndChar
StartChar: arYeh.fina2
Encoding: 65573 -1 47
Width: 831
VWidth: 34
Flags: HW
AnchorPoint: "arMarkAbove" 484 334 basechar 0
AnchorPoint: "arDotAbove" 484 334 basechar 0
AnchorPoint: "arHamzaAbove" 484 334 basechar 0
AnchorPoint: "arMarkBelow" 544 -371 basechar 0
AnchorPoint: "arDotBelow" 544 -371 basechar 0
LayerCount: 2
Fore
SplineSet
812 -104 m 1
 812 -276 l 1
 374 -276 l 2
 250 -276 152 -218 126 -121 c 0
 98 -16 169 98 275 122 c 0
 317 132 326 157 345 191 c 0
 378 250 438 299 522 300 c 0
 593 301 662 263 698 194 c 0
 710 171 727 172 758 172 c 2
 851 172 l 1
 851 0 l 1
 758 0 l 2
 651 0 586 37 546 114 c 0
 540 125 532 130 522 128 c 0
 509 126 502 120 493 105 c 0
 490 100 456 -8 319 -44 c 0
 295 -50 290 -70 292 -77 c 0
 292 -77 297 -104 374 -104 c 2
 812 -104 l 1
EndSplineSet
EndChar
StartChar: arYeh.isol
Encoding: 65550 -1 14
Width: 834
VWidth: 34
Flags: HW
AnchorPoint: "arMarkAbove" 337 330 basechar 0
AnchorPoint: "arHamzaAbove" 337 330 basechar 0
AnchorPoint: "arDotAbove" 337 330 basechar 0
AnchorPoint: "arMarkBelow" 459 -366 basechar 0
AnchorPoint: "arDotBelow" 459 -366 basechar 0
LayerCount: 2
Fore
SplineSet
714 232 m 1
 714 60 l 1
 606.5 60 l 1
 613.375 76.875 l 1
 683.538085938 -8.51171875 l 2
 758.232421875 -99.4130859375 686.720703125 -214 577 -214 c 2
 347 -214 l 2
 260.13671875 -214 120 -159.467773438 120 -3 c 2
 120 223 l 1
 292 223 l 1
 292 -3 l 2
 292 -28.5322265625 305.86328125 -42 347 -42 c 2
 512 -42 l 1
 498 -54 l 1
 442.716796875 13.205078125 l 2
 361.337890625 112.1328125 430.935546875 232 546 232 c 2
 714 232 l 1
EndSplineSet
EndChar
StartChar: arYeh.isol2
Encoding: 65553 -1 26
Width: 1119
VWidth: 34
Flags: HW
AnchorPoint: "arMarkAbove" 484 408 basechar 0
AnchorPoint: "arHamzaAbove" 484 408 basechar 0
AnchorPoint: "arDotAbove" 484 408 basechar 0
AnchorPoint: "arMarkBelow" 544 -297 basechar 0
AnchorPoint: "arDotBelow" 544 -297 basechar 0
LayerCount: 3
Fore
SplineSet
703 327 m 1
 611 181 l 1
 563 211 521 221 490 178 c 0
 485 169 449 68 319 34 c 0
 294 28 291 8 293 2 c 0
 293 2 296 -25 374 -25 c 0
 1000 -25 l 1
 1000 -197 l 1
 374 -197 l 0
 250 -197 152 -139 126 -42 c 0
 98 63 165 171 275 200 c 0
 351 220 309 271 414 342 c 0
 523 415 653 358 703 327 c 1
EndSplineSet
EndChar
StartChar: bracketleft.ar
Encoding: 91 -1 50
Width: 468
VWidth: 34
Flags: HW
LayerCount: 2
Fore
SplineSet
417.01171875 836.360351562 m 1
 417.01171875 664.360351562 l 1
 362 664.360351562 l 1
 362 -116.360351562 l 1
 418.044921875 -116.360351562 l 1
 418.044921875 -288.360351562 l 1
 190 -288.360351562 l 1
 190 836.360351562 l 1
 417.01171875 836.360351562 l 1
EndSplineSet
EndChar
StartChar: extender
Encoding: 65623 -1 174
Width: 0
VWidth: 34
GlyphClass: 2
Flags: HW
LayerCount: 3
Fore
SplineSet
15 172 m 1
 15 0 l 1
 -15 0 l 1
 -15 172 l 1
 15 172 l 1
EndSplineSet
EndChar
StartChar: u0644_u0627.isol.alt1
Encoding: 65539 -1 31
Width: 646
VWidth: 34
Flags: HW
LayerCount: 2
Fore
SplineSet
354 692 m 1
 526 692 l 1
 526 138 l 2
 526 62 463 0 387 0 c 2
 120 0 l 1
 120 172 l 1
 374 172 l 1
 354 152 l 1
 354 692 l 1
122 692 m 1
 294 692 l 1
 294 221 l 1
 122 221 l 1
 122 692 l 1
EndSplineSet
EndChar
StartChar: u0644_u0627.isol.alt2
Encoding: 65540 -1 32
Width: 716
VWidth: 34
Flags: HW
LayerCount: 2
Fore
SplineSet
424 692 m 1
 596 692 l 1
 596 138 l 2
 596 62 533 0 457 0 c 2
 120 0 l 1
 120 172 l 1
 444 172 l 1
 424 152 l 1
 424 692 l 1
192 598 m 1
 364 598 l 1
 364 93 l 1
 192 93 l 1
 192 598 l 1
EndSplineSet
EndChar
StartChar: u0644_u0627.isol
Encoding: 65538 -1 30
Width: 1000
VWidth: 34
Flags: HW
LayerCount: 2
Fore
SplineSet
657 692 m 1
 829 692 l 1
 829 138 l 2
 829 62 766 0 690 0 c 2
 357 0 l 1
 357 172 l 1
 677 172 l 1
 657 152 l 1
 657 692 l 1
492 289 m 1
 652 289 l 17
 641 196 575.220703125 149.291015625 482 124 c 1
 372 124 l 1
 440 157 494 187 492 289 c 1
355.442382812 689.913085938 m 1
 520.557617188 738.086914062 l 1
 651.557617188 289.086914062 l 1
 486.442382812 240.913085938 l 1
 355.442382812 689.913085938 l 1
EndSplineSet
EndChar
StartChar: uni062D.init
Encoding: 65554 -1 43
Width: 716
VWidth: 0
Flags: HW
LayerCount: 2
Fore
SplineSet
0 1 m 1
 0 173 l 1
 334.75 173 l 1
 330.716796875 157 l 1
 320.5078125 166.890625 309.40625 177.888671875 298 189.14453125 c 0
 266.159179688 220.564453125 231.950195312 253.987304688 208.198242188 270.887695312 c 0
 168.115234375 299.309570312 127.853515625 309.392578125 86.6220703125 319.44921875 c 1
 127.377929688 486.55078125 l 1
 168.146484375 476.607421875 237.884765625 460.690429688 307.801757812 411.112304688 c 0
 371.829101562 365.5546875 420.004882812 308.20703125 455.859375 276.521484375 c 0
 512.5390625 226.712890625 532 238 590.076171875 241 c 1
 595.78125 161.127929688 l 0
 597.676757812 134.592773438 591.383789062 1 463 1 c 0
 0 1 l 1
EndSplineSet
EndChar
StartChar: uni0631.fina
Encoding: 65542 -1 34
Width: 1000
VWidth: 34
Flags: HW
LayerCount: 2
Fore
SplineSet
718 173 m 1
 718 1 l 1
 573 1 l 1
 573 173 l 1
 718 173 l 1
EndSplineSet
Refer: 3 1585 N 1 0 0 1 0 0 2
EndChar
StartChar: uni0633.init
Encoding: 65544 -1 36
Width: 1000
VWidth: 34
Flags: HW
LayerCount: 2
Fore
SplineSet
347 410 m 1
 519 410 l 1
 519 138 l 2
 519 62 456 0 380 0 c 2
 201 0 l 1
 201 172 l 1
 367 172 l 1
 347 152 l 1
 347 410 l 1
792 410 m 1
 964 410 l 1
 964 138 l 2
 964 61 900 0 824 0 c 2
 722 0 l 1
 722 172 l 1
 812 172 l 1
 792 152 l 1
 792 410 l 1
568 410 m 1
 740 410 l 1
 740 138 l 2
 740 62 677 0 601 0 c 2
 480 0 l 1
 480 172 l 1
 588 172 l 1
 568 152 l 1
 568 410 l 1
EndSplineSet
EndChar
StartChar: uni0635.init
Encoding: 65556 -1 45
Width: 1000
VWidth: 34
Flags: HW
LayerCount: 2
Fore
SplineSet
391.719726562 172 m 17
 475.11328125 287.846679688 601.805664062 506.325195312 799.611328125 433.000976562 c 0
 892.778320312 393.870117188 928.594726562 304.6484375 930.96875 207.331054688 c 0
 932.956054688 140.764648438 l 2
 935.654296875 62.4912109375 870.624023438 0 794 0 c 2
 203 0 l 1
 203 172 l 1
 780 172 l 1
 760 152 l 1
 760.03125 202.668945312 l 0
 758.4453125 267.698242188 744.6953125 269.040039062 736.416992188 272.950195312 c 0
 693.716796875 286.760742188 600 174 526 62 c 9
 391.719726562 172 l 17
255 311 m 1
 427 311 l 1
 427 92 l 1
 255 92 l 1
 255 311 l 1
EndSplineSet
EndChar
StartChar: uni0639.init
Encoding: 65549 -1 41
Width: 1000
VWidth: 34
Flags: HW
LayerCount: 2
Fore
SplineSet
266 1 m 1
 266 173 l 1
 734 173 l 1
 734 1 l 1
 266 1 l 1
708.73828125 463.365234375 m 1
 659.26171875 298.634765625 l 1
 564.305664062 327.155273438 503.997070312 320.548828125 488.158203125 313.494140625 c 1
 490.619140625 297.153320312 514.6015625 246.33984375 585.262695312 181.256835938 c 1
 468.737304688 54.7431640625 l 1
 349.824263469 164.267263294 251.698734554 313.393234841 358.805664062 428.859375 c 0
 438.60546875 514.887695312 572.4296875 504.305664062 708.73828125 463.365234375 c 1
EndSplineSet
EndChar
StartChar: uni0643.init
Encoding: 65555 -1 44
Width: 1000
VWidth: 34
Flags: HW
LayerCount: 2
Fore
SplineSet
776.676757812 739.96875 m 1
 781.32421875 567.998046875 l 1
 762.563476562 566.4375 588.747070312 527.981445312 500.00390625 483.341796875 c 1
 505.671875 509.329101562 l 1
 779.452148438 229.163085938 l 2
 864.323242188 142.3125 804.225402124 1 683 1 c 2
 221 1 l 1
 221 173 l 1
 614 173 l 1
 605.73046875 161 l 1
 376.547851562 394.836914062 l 2
 315.696289062 456.923828125 310.376643505 570.3919269 390.987304688 618.892578125 c 0
 514.188476562 694.255859375 713.250976562 738.25390625 776.676757812 739.96875 c 1
EndSplineSet
EndChar
StartChar: uni0643_uni0627.isol
Encoding: 65557 -1 46
Width: 1000
VWidth: 34
Flags: HW
LayerCount: 2
Fore
SplineSet
532.515625 157 m 1
 538 172 l 1
 352 172 l 1
 372 152 l 1
 372 705 l 1
 200 705 l 1
 200 140 l 2
 200 65.8763570429 257.458054596 0 335 0 c 2
 640 0 l 2
 740.078785848 -1.22561164751e-14 810.523779766 116.786900698 733.70703125 196.833007812 c 2
 482.034179688 457.265625 l 1
 561.400390625 506.725585938 674.614257812 550.278320312 742.219726562 573.76171875 c 1
 685.780273438 736.23828125 l 1
 568.619144396 695.540407968 418.072265625 639.002929688 298.072265625 536.002929688 c 8
 260.708984375 503.932617188 262.322265625 440.114257812 290.072265625 410.002929688 c 0
 384.072265625 308.002929688 439.936523438 255.801757812 532.515625 157 c 1
EndSplineSet
EndChar
StartChar: uni0644.int
Encoding: 65543 -1 35
Width: 1000
VWidth: 34
Flags: HW
LayerCount: 2
Fore
SplineSet
484 692 m 1
 656 692 l 1
 656 138 l 2
 656 62 593 0 517 0 c 2
 396 0 l 1
 396 172 l 1
 504 172 l 1
 484 152 l 1
 484 692 l 1
EndSplineSet
EndChar
StartChar: uni0647.init
Encoding: 65552 -1 42
Width: 1000
VWidth: 34
Flags: HW
LayerCount: 2
Fore
SplineSet
461 451 m 1
 461 623 l 1
 776.282226562 623 918.340820312 319.86328125 914.005859375 138.202148438 c 0
 912.682519591 57.1538288446 848.483972525 1 776 1 c 2
 192 1 l 1
 192 173 l 1
 760 173 l 1
 744 153 l 1
 733.051025391 295.5 628 451 461 451 c 1
515.302734375 1.009765625 m 1
 512.697265625 172.990234375 l 1
 515.548828125 173.033203125 519.548107268 174.645610704 518.5 177.25 c 24
 512.0703125 193.227539062 504.145304539 206.320310692 495.75 215.101646562 c 0
 479.649375568 231.94260691 466 237 457 238 c 0
 452 239 450 236.36328125 450 231 c 2
 450 137 l 1
 278 137 l 1
 278 234 l 2
 278 294.898123264 308.01875674 351.411370828 353.685546875 381.692382812 c 0
 453.22265625 447.684570312 583.850585938 398.0546875 654.0859375 290.901367188 c 0
 693.715920926 229.537614385 709.929495126 152.996519902 670.201171875 86.3876953125 c 0
 634.993164062 27.359375 572.381835938 1.875 515.302734375 1.009765625 c 1
EndSplineSet
EndChar
StartChar: uni0647.medi
Encoding: 65537 -1 29
Width: 1000
VWidth: 34
Flags: HW
LayerCount: 2
Fore
SplineSet
738 -205 m 1
 566 -205 l 1
 566 35 l 2
 566 111.4453125 627.78125 173 704 173 c 2
 844 173 l 1
 844 1 l 1
 718.0625 1 l 1
 738 21 l 1
 738 -205 l 1
593.452148438 -211.758789062 m 1
 424.547851562 -244.241210938 l 1
 408.88671875 -162.807617188 396.053710938 -193.7734375 339.889648438 -103.287109375 c 0
 314.629882812 -62.4248046875 314.356445312 1 289.478515625 1 c 2
 191 1 l 1
 191 173 l 1
 332.719726562 173 l 2
 473.302734375 173 466.857875487 16.9910564116 486.110351562 -12.712890625 c 0
 520 -65 569.11328125 -85.1923828125 593.452148438 -211.758789062 c 1
EndSplineSet
EndChar
StartChar: uni0648.fina
Encoding: 65541 -1 33
Width: 1000
VWidth: 34
Flags: HW
LayerCount: 2
Fore
SplineSet
750 172 m 1
 750 0 l 1
 605 0 l 1
 605 172 l 1
 750 172 l 1
EndSplineSet
Refer: 13 1608 N 1 0 0 1 0 0 2
EndChar
StartChar: uni0649.fina.alt1
Encoding: 65547 -1 39
Width: 1000
VWidth: 34
Flags: HW
LayerCount: 2
Fore
SplineSet
759 173 m 1
 759 1 l 1
 506 1 l 1
 506 173 l 1
 759 173 l 1
517 92 m 1
 689 92 l 1
 689 -51 l 2
 689 -122.886485377 632.609366774 -187 556 -187 c 2
 419 -187 l 2
 292.846679688 -187 155 -117.606445312 155 38 c 2
 155 220 l 1
 327 220 l 1
 327 38 l 2
 327 7.6064453125 361.153320312 -15 419 -15 c 2
 537 -15 l 1
 517 -35 l 1
 517 92 l 1
EndSplineSet
EndChar
StartChar: uni0649.fina.alt2
Encoding: 65548 -1 40
Width: 1000
VWidth: 34
Flags: HW
LayerCount: 2
Fore
SplineSet
856 173 m 1
 856 1 l 1
 745 1 l 2
 670.727774306 1 615.7890625 56.1484375 612.025390625 129.41015625 c 2
 607.5 217.5 l 1
 624.5 207.5 l 1
 593.5 196 539.581054688 155.801757812 522 142.75 c 1
 525.25 164.75 l 1
 627.033203125 48.5576171875 l 2
 707.083007812 -42.8251953125 634.777225932 -162 525 -162 c 2
 259.821289062 -162 l 2
 133.52734375 -162.865234375 58 -56.8203125 58 48 c 2
 58 251 l 1
 230 251 l 1
 230 48 l 2
 230 17.330078125 244.151367188 10 258.376953125 10 c 2
 452 10 l 1
 444.25 -3.75 l 1
 387.9140625 60.36328125 l 2
 330.664730446 125.516053889 334.753245226 202.51527993 391.1875 254.724609375 c 0
 430.522460938 292.559570312 479.078838065 323.860050155 521.30078125 348.21484375 c 0
 619.287339623 404.736221598 720.595859615 365.348729549 759.805664062 292.89453125 c 0
 779.348241443 256.780554273 781.78125 222.608398438 782.124023438 153 c 1
 762 173 l 1
 856 173 l 1
EndSplineSet
EndChar
StartChar: uni0664.alt
Encoding: 65554 -1 28
Width: 800
VWidth: 34
Flags: HW
LayerCount: 2
Fore
SplineSet
436.731445312 718.4140625 m 1
 538.274414062 579.5859375 l 1
 387.002929688 469 l 1
 387.002929688 489.25 l 1
 505.376953125 381.61328125 l 0
 541.638671875 348.623046875 539.680664062 291.862304688 511.42578125 260.46875 c 0
 420.16796875 159.166992188 l 1
 412.502929688 173 l 1
 608.502929688 173 l 1
 608.502929688 1 l 1
 294.502929688 1 l 2
 256.9765625 1 226.616210938 26.111328125 209.889648438 52.9775390625 c 0
 165.448242188 124.361328125 211.9140625 186.469726562 240.435546875 216.482421875 c 2
 326.357421875 311.950195312 l 1
 256.62890625 375.38671875 l 2
 237.998046875 392.336914062 215.985351562 414.111328125 205.33984375 456.340820312 c 0
 193.515625 503.2421875 214.920898438 555.407226562 258.5625 587.479492188 c 2
 258.5625 587.479492188 373.510742188 672.172851562 436.731445312 718.4140625 c 1
EndSplineSet
EndChar
StartChar: uni066E.init
Encoding: 65545 -1 37
Width: 1000
VWidth: 34
Flags: HW
LayerCount: 2
Fore
SplineSet
585 410 m 1
 757 410 l 1
 757 138 l 2
 757 62 694 0 618 0 c 2
 329 0 l 1
 329 172 l 1
 605 172 l 1
 585 152 l 1
 585 410 l 1
EndSplineSet
EndChar
StartChar: uni066F.fina
Encoding: 65561 -1 53
Width: 1000
VWidth: 34
Flags: HW
LayerCount: 2
Fore
SplineSet
934 171 m 1
 934 0 l 1
 636 0 l 2
 545 0 444 0 380 106 c 0
 310 221 369 349 451 403 c 0
 541 461 693 457 766 341 c 0
 787 308 798 267 798 224 c 0
 798 -60 l 2
 798 -137 735 -200 657 -200 c 2
 235 -200 l 2
 138 -200 50 -127 50 -20 c 2
 50 222 l 1
 222 222 l 1
 222 -48 l 1
 202 -28 l 1
 646 -28 l 1
 626 -48 l 1
 626 214 l 0
 626 246 611 260 592 266 c 0
 572 273 550 266 537 252 c 0
 520 233 519 209 528 194 c 0
 542 170 549 170 636 171 c 2
 934 171 l 1
EndSplineSet
EndChar
StartChar: uni066F.init
Encoding: 65562 -1 54
Width: 1000
VWidth: 34
Flags: HW
LayerCount: 2
Fore
SplineSet
305 172 m 1
 646 172 l 1
 626 152 l 1
 626 414 l 0
 626 446.245117188 610.959960938 459.616210938 592 466.041992188 c 0
 572.057617188 472.801757812 550.1484375 465.861328125 536.888671875 451.701171875 c 0
 519.5625 433.197265625 518.583984375 409.36328125 527.604492188 394.479492188 c 0
 541.771484375 370.967773438 558.962890625 346.756835938 666 357.377929688 c 1
 666 220.345703125 l 1
 566.311523438 214.993164062 444.56640625 199.0234375 380.395507812 305.520507812 c 0
 310.895507812 420.196289062 369 549.469726562 451.3359375 603.240234375 c 0
 541.405273438 660.784179688 692.708984375 656.412109375 765.862304688 540.569335938 c 0
 786.8671875 507.306640625 798 466.8203125 798 424 c 0
 798 140 l 2
 798 62.8408203125 734.90625 0 657 0 c 2
 305 0 l 17
 305 172 l 1
EndSplineSet
EndChar
StartChar: uni06A1.fina
Encoding: 65560 -1 51
Width: 1000
VWidth: 34
Flags: HW
LayerCount: 2
Fore
SplineSet
934 171 m 1
 934 0 l 1
 636 0 l 2
 545 0 444 0 380 106 c 0
 310 221 369 349 451 403 c 0
 541 461 693 457 766 341 c 0
 787 308 798 267 798 224 c 0
 798 -60 l 2
 798 -137 735 -200 657 -200 c 2
 165 -200 l 2
 68 -200 -20 -127 -20 -20 c 2
 -20 132 l 1
 152 132 l 1
 152 -48 l 1
 132 -28 l 1
 646 -28 l 1
 626 -48 l 1
 626 214 l 0
 626 246 611 260 592 266 c 0
 572 273 550 266 537 252 c 0
 520 233 519 209 528 194 c 0
 542 170 549 170 636 171 c 2
 934 171 l 1
EndSplineSet
EndChar
StartChar: uni06BA.fina
Encoding: 65546 -1 38
Width: 1000
VWidth: 34
Flags: HW
LayerCount: 2
Fore
SplineSet
779 173 m 1
 779 1 l 1
 638 1 l 1
 638 173 l 1
 779 173 l 1
EndSplineSet
Refer: 24 1722 N 1 0 0 1 -77 0 2
EndChar
StartChar: uni06D2.fina
Encoding: 65558 -1 47
Width: 1000
VWidth: 34
Flags: HW
LayerCount: 2
Fore
SplineSet
803 -103 m 1
 803 -275 l 1
 365 -275 l 2
 241.225585938 -275 143.206054688 -217.018554688 117.354492188 -119.860351562 c 0
 89.4375 -14.94140625 160.024581364 99.1636052044 266.143554688 123.176757812 c 0
 308.299000481 132.715911099 316.989105225 158.863220215 335.8046875 192.486328125 c 0
 368.785913254 251.42318675 429.287712872 299.721932139 512.989135742 300.712716903 c 0
 583.704282531 301.549781406 652.833480836 264.055328642 689.212890625 194.845703125 c 0
 701.23046875 171.735351562 718.166015625 173 749 173 c 2
 823 173 l 1
 823 1 l 1
 749 1 l 2
 641.833984375 1 576.76953125 38.2646484375 536.787109375 115.154296875 c 0
 531.050976087 126.067791347 522.540599536 130.544703125 512.989135742 129.000646879 c 0
 499.959969416 126.8943974 493.25174731 120.691793739 484.252929688 105.610351562 c 0
 481.692382812 100.986328125 447.046875 -7.0078125 309.856445312 -43.1767578125 c 0
 285.590820312 -49.53125 281.717773438 -68.669921875 283.571289062 -75.6337890625 c 0
 283.663085938 -75.9794921875 287.50390625 -103 365 -103 c 2
 803 -103 l 1
EndSplineSet
EndChar
